<svg xmlns="http://www.w3.org/2000/svg" width="287" height="63" viewBox="0 0 287 63">
  <g fill="#FF8D06" fill-rule="evenodd">
    <polygon points="99.702 19.956 99.702 23.469 91.332 23.469 91.332 46.167 87.384 46.167 87.384 23.469 79.056 23.469 79.056 19.956"/>
    <path d="M103.095,27.534 L103.095,30.969 C103.328282,29.9389479 103.90744,29.0199174 104.736,28.365 C105.564,27.705 106.82,27.376 108.504,27.3779819 L109.104,27.3779819 L109.104,31.167 L107.325,31.167 C105.669,31.167 104.551,31.601 103.971,32.469 C103.391,33.337 103.101,34.719 103.101,36.615 L103.101,46.167 L99.228,46.167 L99.228,27.534 L103.095,27.534 Z M116.4,46.641 C114.426,46.641 112.86,46.141 111.702,45.141 C110.563165,44.184655 109.923475,42.7605455 109.965,41.274 C109.928905,40.3793214 110.118745,39.4899635 110.517,38.688 C110.882578,38.0202786 111.404459,37.451048 112.038,37.029 C112.749687,36.5634859 113.528818,36.2103472 114.348,35.982 C115.242,35.72 116.202,35.47 117.228,35.232 C118.808,34.89 120.072,34.614 121.02,34.404 C121.965,34.194 122.52,33.837 122.715,33.339 L122.715,33.063 C122.720625,32.3096271 122.378619,31.5957303 121.788,31.128 C121.17,30.6 120.15,30.337 118.728,30.339 C117.36,30.339 116.301,30.639 115.551,31.239 C114.796486,31.8399731 114.342692,32.7409853 114.309,33.705 L114.309,33.942 L110.4,33.942 C110.45,31.864 111.25,30.226 112.8,29.028 C114.35,27.83 116.343,27.23 118.779,27.228 C121.149,27.228 123.011,27.781 124.365,28.887 C125.719,29.993 126.397,31.73 126.399,34.098 L126.399,43.296 L126.438,46.176 L122.688,46.176 L122.688,43.374 C122.094337,44.4442957 121.185005,45.3054373 120.084,45.84 C118.934143,46.3873535 117.673321,46.6614899 116.4,46.641 Z M117.111,43.68 C118.429204,43.6870562 119.717599,43.2879682 120.801,42.537 C121.919,41.773 122.557,40.483 122.715,38.667 L122.715,36.378 C122.032831,36.8108938 121.277497,37.115874 120.486,37.278 L117.786,37.908 C116.832129,38.1321518 115.914958,38.4907375 115.062,38.973 C114.30496,39.4077339 113.860615,40.2347736 113.916,41.106 C113.892396,41.8184097 114.197732,42.5020961 114.744,42.96 C115.298,43.44 116.087,43.68 117.111,43.68 Z M137.559,46.563 C136.426359,46.5707075 135.303859,46.3492688 134.259,45.912 C133.242053,45.4826248 132.331662,44.8354177 131.592,44.016 C130.810138,43.1302108 130.213424,42.096927 129.837,40.977 C128.993911,38.3520348 128.993911,35.5289652 129.837,32.904 C130.216897,31.7675869 130.812822,30.7152954 131.592,29.805 C132.328303,28.9624343 133.238092,28.2890468 134.259,27.831 C135.31528,27.3653195 136.458675,27.1300951 137.613,27.141 C138.82689,27.121253 140.024735,27.4201968 141.087,28.008 C142.100794,28.5752673 142.966285,29.3739449 143.613,30.339 L143.613,19.56 L147.39,19.56 L147.39,46.167 L143.598,46.167 L143.598,43.443 C142.952854,44.4058539 142.078693,45.1934232 141.054,45.735 C139.975533,46.2961395 138.774589,46.5806551 137.559,46.563 L137.559,46.563 Z M138.546,43.248 C140.026399,43.293444 141.440418,42.6331973 142.356,41.469 C143.316,40.287 143.796,38.774 143.796,36.93 L143.796,36.63 C143.796,34.814 143.329,33.333 142.395,32.187 C141.461,31.041 140.178,30.469 138.546,30.471 C137.081605,30.4200118 135.673326,31.0369617 134.718,32.148 C133.744,33.268 133.257,34.828 133.257,36.828 L133.257,37.104 C133.257,39.078 133.744,40.598 134.718,41.664 C135.700353,42.7272658 137.09957,43.3062523 138.546,43.248 Z M159.666,46.5 C156.822,46.5 154.565,45.625 152.895,43.875 C151.225,42.125 150.39,39.825 150.39,36.975 C150.376249,35.6278463 150.610132,34.2896306 151.08,33.027 C151.502219,31.8801225 152.145368,30.8272338 152.973,29.928 C153.783272,29.0687035 154.765645,28.3899357 155.856,27.936 C157.012368,27.454446 158.254432,27.212565 159.507,27.225 C162.245,27.225 164.39,28.087 165.942,29.811 C167.494,31.535 168.271,33.857 168.273,36.777 L168.273,38.199 L154.257,38.199 C154.361,39.781 154.894,41.031 155.856,41.949 C156.818,42.867 158.088,43.328 159.666,43.332 C161.244,43.332 162.428,42.996 163.218,42.324 C163.975659,41.6991788 164.560304,40.8903847 164.916,39.975 L168.351,41.319 C167.67567,42.7833407 166.622593,44.0414425 165.3,44.964 C163.914,45.988 162.036,46.5 159.666,46.5 Z M159.429,30.393 C158.123966,30.3587823 156.856732,30.8331883 155.895,31.716 C154.905211,32.6557736 154.294629,33.926042 154.179,35.286 L164.286,35.286 C164.206,33.708 163.738,32.498 162.882,31.656 C162.026,30.814 160.875,30.388 159.429,30.378 L159.429,30.393 Z M171.39,46.167 L171.39,19.956 L180.471,19.956 C184.707,19.956 187.957,21.081 190.221,23.331 C192.485,25.581 193.617,28.851 193.617,33.141 C193.617,37.353 192.452,40.577 190.122,42.813 C187.792,45.049 184.443,46.167 180.075,46.167 L171.39,46.167 Z M175.338,23.4299923 L175.338,42.693 L180.195,42.693 C183.273,42.693 185.589,41.904 187.143,40.326 C188.697,38.748 189.473,36.379 189.471008,33.219 L189.471008,32.982 C189.471008,29.72 188.734,27.312 187.26,25.758 C185.786,24.204 183.523,23.428 180.471,23.4299923 L175.338,23.4299923 Z M204.9,46.5 C202.056,46.5 199.799,45.625 198.129,43.875 C196.459,42.125 195.624,39.825 195.624,36.975 C195.610249,35.6278463 195.844132,34.2896306 196.314,33.027 C196.736219,31.8801225 197.379368,30.8272338 198.207,29.928 C199.017272,29.0687035 199.999645,28.3899357 201.09,27.936 C202.246368,27.454446 203.488432,27.212565 204.741,27.225 C207.479,27.225 209.624,28.087 211.176,29.811 C212.728,31.535 213.505,33.857 213.507,36.777 L213.507,38.199 L199.5,38.199 C199.606,39.781 200.139,41.031 201.099,41.949 C202.059,42.867 203.329,43.328 204.909,43.332 C206.487,43.332 207.671,42.996 208.461,42.324 C209.218659,41.6991788 209.803304,40.8903847 210.159,39.975 L213.6,41.313 C212.92889,42.7780875 211.880003,44.0382022 210.561,44.964 C209.161,45.988 207.274,46.5 204.9,46.5 Z M204.663,30.393 C203.357966,30.3587823 202.090732,30.8331883 201.129,31.716 C200.139211,32.6557736 199.528629,33.926042 199.413,35.286 L209.52,35.286 C209.44,33.708 208.972,32.498 208.116,31.656 C207.26,30.814 206.111,30.388 204.669,30.378 L204.663,30.393 Z M226.419,46.563 C225.216481,46.5836162 224.028399,46.2987242 222.966,45.735 C221.964859,45.1911096 221.105715,44.4193189 220.458,43.482 L220.458,53.511 L216.63,53.511 L216.63,27.534 L220.419,27.534 L220.419,30.3 C221.768382,28.2924603 224.042427,27.1046272 226.461,27.144 C227.595395,27.1367294 228.718999,27.3645145 229.761,27.813 C230.776611,28.2468788 231.68943,28.8898388 232.44,29.7 C233.225149,30.5771116 233.82332,31.6050258 234.198,32.721 C234.63295,34.0107732 234.845971,35.3649808 234.828,36.726 L234.828,36.765 C234.846928,38.1466868 234.633974,39.5217627 234.198,40.833 C233.820671,41.9648738 233.223208,43.0109443 232.44,43.911 C231.701346,44.745185 230.793101,45.4120494 229.776,45.867 C228.719222,46.335072 227.574761,46.5723509 226.419,46.563 L226.419,46.563 Z M225.474,43.248 C226.938721,43.2973641 228.34672,42.6794333 229.302,41.568 C230.274,40.456 230.761,38.9 230.763,36.9 L230.763,36.624 C230.763,34.65 230.276,33.13 229.302,32.064 C228.321913,30.9958772 226.922648,30.411388 225.474,30.465 C223.986232,30.4091266 222.561769,31.0694882 221.643,32.241 C220.695,33.427 220.221,34.94 220.221,36.78 L220.221,37.098 C220.221,38.914 220.689,40.394 221.625,41.538 C222.561,42.682 223.844,43.252 225.474,43.248 Z M246.078,46.5 C243.342,46.5 241.116,45.6 239.4,43.8 C237.684,42 236.822,39.7 236.814,36.9 C236.8001,35.5684545 237.034082,34.2459468 237.504,33 C237.937877,31.8608634 238.595858,30.8203367 239.439,29.94 C240.276438,29.0725126 241.284663,28.3881044 242.4,27.93 C244.823579,26.9819158 247.515421,26.9819158 249.939,27.93 C251.049327,28.3793519 252.052217,29.0581685 252.882,29.922 C253.714636,30.8065055 254.365001,31.8462742 254.796,32.982 C255.265918,34.2279468 255.4999,35.5504545 255.486,36.882 C255.498693,38.2036867 255.264689,39.516141 254.796,40.752 C254.362356,41.8905 253.699687,42.9278982 252.849,43.8 C252.001809,44.6552442 250.987813,45.3271569 249.87,45.774 C248.665717,46.2619132 247.377339,46.5085804 246.078,46.5 Z M246.078,43.221 C247.736,43.221 249.066,42.662 250.068,41.544 C251.07,40.426 251.57,38.919 251.568012,37.023 L251.568012,36.867 C251.568012,34.919 251.082,33.373 250.11,32.229 C249.138,31.085 247.822,30.512 246.162,30.51 C244.504,30.51 243.181,31.083 242.193,32.229 C241.205,33.375 240.712,34.921 240.713988,36.867 L240.713988,37.023 C240.713988,38.919 241.194,40.426 242.154,41.544 C243.114,42.662 244.422,43.214 246.078,43.2 L246.078,43.221 Z M266.7,46.167 L263.37,46.167 C261.686,46.089 260.554,45.662 259.974,44.886 C259.394,44.11 259.094,42.985 259.074,41.511 L259.074,30.852 L256.113,30.852 L256.113,27.534 L259.074,27.534 L259.074,23.904 L262.824,21.573 L262.824,27.534 L266.85,27.534 L266.85,30.852 L262.818,30.852 L262.818,41.037 C262.783191,41.5046985 262.923237,41.9686675 263.211,42.339 C263.551064,42.6568771 264.010315,42.8150515 264.474,42.774 L266.7,42.774 L266.7,46.167 Z M280.155,21.984 L281.793,21.984 C282.254766,21.9473723 282.715687,22.0644481 283.104,22.317 C283.379433,22.5329199 283.535434,22.8672086 283.524,23.217 C283.547372,23.8618405 283.062604,24.4124734 282.42,24.471 C282.762215,24.5608734 283.055328,24.7817858 283.236,25.086 C283.444268,25.4740368 283.569907,25.901005 283.605,26.34 L283.626,26.511 L282.9,26.511 L282.9,26.367 C282.865495,25.9486891 282.722829,25.5465352 282.486,25.2 C282.231848,24.8868211 281.837367,24.7222661 281.436,24.762 L280.836,24.762 L280.836,26.508 L280.161,26.508 L280.155,21.984 Z M280.83,22.563 L280.83,24.201 L281.7,24.201 C281.881536,24.20435 282.062259,24.1759216 282.234,24.117 C282.365716,24.073244 282.486456,24.0016183 282.588,23.907 C282.675116,23.8232525 282.741831,23.7206135 282.783,23.607 C282.823133,23.5026718 282.84348,23.3917802 282.843,23.28 C282.858021,23.0668587 282.76294,22.8608515 282.591,22.734 C282.346123,22.5975194 282.066552,22.535972 281.787,22.557 L280.83,22.563 Z"/>
    <path d="M281.892 28.974002C279.97943 28.9752136 278.254509 27.8240431 277.521759 26.057407 276.789009 24.2907708 277.192776 22.2566819 278.544738 20.9038613 279.896701 19.5510406 281.930533 19.1459829 283.697634 19.8776113 285.464735 20.6092397 286.617 22.3334296 286.617 24.246 286.613698 26.8546628 284.50066 28.9690427 281.892 28.974002L281.892 28.974002zM281.892 20.1809978C280.246102 20.1797867 278.761652 21.1704781 278.131233 22.6908575 277.500815 24.2112369 277.848665 25.9616835 279.012491 27.1255093 280.176317 28.2893351 281.926763 28.6371852 283.447143 28.0067668 284.967522 27.3763483 285.958213 25.8918978 285.957002 24.246 285.953696 22.0023326 284.135667 20.1843044 281.892 20.1809978L281.892 20.1809978zM49.116 21.3720037C50.1039689 21.3732137 50.995331 20.7790097 51.3742516 19.8665935 51.7531723 18.9541774 51.5449863 17.903338 50.8468157 17.2043087 50.1486452 16.5052794 49.0980625 16.2958018 48.1851813 16.6736006 47.2723001 17.0513993 46.6769964 17.9420304 46.6769964 18.93 46.6762037 19.5773826 46.9328175 20.1985228 47.390305 20.6565731 47.8477926 21.1146234 48.4686169 21.3720037 49.116 21.3720037zM42.1709952 23.244C42.1697867 24.0029113 42.6261705 24.6877141 43.3270817 24.9786976 44.0279929 25.2696812 44.8351908 25.1094549 45.3718228 24.5728228 45.9084549 24.0361908 46.0686812 23.2289929 45.7776976 22.5280817 45.4867141 21.8271705 44.8019113 21.3707867 44.043 21.3719952 43.5462705 21.371202 43.0696562 21.5681738 42.718415 21.919415 42.3671738 22.2706562 42.170202 22.7472705 42.1709952 23.244L42.1709952 23.244zM44.238 17.0520036C45.5829739 17.0503436 46.6721031 15.9589769 46.6710008 14.6140025 46.6698953 13.269028 45.578976 12.1794506 44.2340012 12.1800016 42.8890264 12.1805535 41.799 13.2710251 41.799 14.616 41.799 15.2625875 42.0560605 15.8826487 42.5135482 16.3395736 42.9710359 16.7964986 43.591413 17.0527963 44.238 17.0520036L44.238 17.0520036zM38.982 13.1159999C40.2246391 13.114342 41.2306532 12.1056404 41.228996 10.8630013 41.2273388 9.62036228 40.2186377 8.61434752 38.9759987 8.61599992 37.7333596 8.61766049 36.7273443 9.62636094 36.728996 10.869 36.7297951 11.4657373 36.9676109 12.0377178 37.3901305 12.4591122 37.8126501 12.8805065 38.3852627 13.1167962 38.982 13.1159999zM33.168 9.94201746C34.004838 9.94442827 34.7605707 9.44203754 35.0822184 8.66947912 35.4038661 7.89692069 35.227956 7.00664888 34.6366501 6.41448235 34.0453443 5.82231581 33.1553293 5.64511089 32.3823039 5.96563455 31.6092784 6.28615822 31.1057889 7.04115932 31.1069956 7.878 31.1069956 9.01674518 32.029256 9.94034485 33.168 9.94201746L33.168 9.94201746zM27.54 7.50001918C28.3016076 7.50242842 28.9895177 7.0453555 29.2823763 6.34230078 29.5752348 5.63924606 29.4152382 4.8289763 28.8771283 4.29000533 28.3390183 3.75103437 27.5290053 3.58974262 26.8254833 3.88147679 26.1219613 4.17321096 25.6637892 4.86038948 25.6649952 5.622 25.6642035 6.1198005 25.8613959 6.59748516 26.213113 6.94976498 26.5648301 7.3020448 27.0421989 7.50001918 27.54 7.50001918zM21.072 6.183C22.0557792 6.1813438 22.8521025 5.38278334 22.8510011 4.39900337 22.8498952 3.41522339 22.0517821 2.61845167 21.0680017 2.61900223 20.0842212 2.61955394 19.287 3.41721941 19.287 4.401 19.2886549 5.3856565 20.0873421 6.183 21.072 6.183zM14.595 6.55502122C15.5249643 6.55003571 16.2752945 5.79300374 16.272011 4.86303201 16.2686842 3.93306029 15.5129921 3.18138072 14.583016 3.18302127 13.6530399 3.1846726 12.9 3.9390224 12.9 4.869 12.9007937 5.31747206 13.0799162 5.74721607 13.3978774 6.06348893 13.7158385 6.3797618 14.1465301 6.55659386 14.595 6.55502122L14.595 6.55502122zM8.775 5.619C7.94657288 5.619 7.275 6.29057288 7.275 7.119 7.275 7.94742712 7.94657288 8.619 8.775 8.619 9.60342712 8.619 10.275 7.94742712 10.275 7.119 10.275 6.72117527 10.1169647 6.3396444 9.83566017 6.05833983 9.5543556 5.77703526 9.17282473 5.619 8.775 5.619L8.775 5.619zM5.775 11.619C5.775 11.0123066 5.40953673 10.4653522 4.84902515 10.2331807 4.28851356 10.0010092 3.64333682 10.1293428 3.21433983 10.5583398 2.78534283 10.9873368 2.6570092 11.6325136 2.8891807 12.1930251 3.1213522 12.7535367 3.66830663 13.119 4.275 13.119 5.10108302 13.1156956 5.76900661 12.4450896 5.769 11.619L5.775 11.619zM1.74 16.3109706C1.06732018 16.3126589.523349856 16.8593177.524999844 17.5319975.52666491 18.2046773 1.07332262 18.7486488 1.74600244 18.7470002 2.41868227 18.7453364 2.96265481 18.1986798 2.96100752 17.526 2.96100752 17.2027197 2.83217208 16.8927669 2.60301604 16.664737 2.37386001 16.436707 2.06327636 16.3094036 1.74 16.3109706zM2.21700784 23.904C2.21815531 23.4834859 1.96476654 23.1040736 1.57589377 22.944038 1.187021 22.7840024.739975271 22.8751598.444810487 23.1746781.149645704 23.4741963.0650430044 23.9225287.230754761 24.3090168.396466518 24.6955049.7795479 24.9433117 1.2 24.936 1.76409142 24.9278001 2.2170596 24.468151 2.21700784 23.904zM2.022 29.0489897C1.50742232 29.0507154 1.09073112 29.467495 1.08911556 29.982073 1.08751857 30.4966511 1.50159968 30.916024 2.01615662 30.9209519 2.53071356 30.9258798 2.95275066 30.5145144 2.961 30 2.96503 29.7486476 2.8677847 29.5062392 2.69116104 29.3273583 2.51453738 29.1484775 2.27338331 29.048162 2.022 29.0489897L2.022 29.0489897zM4.461 35.2409904C3.94445523 35.2426556 3.52689928 35.6624474 3.52799778 36.1789936 3.52910498 36.6955398 3.94844967 37.1135448 4.4649968 37.1129957 4.98154392 37.1124446 5.4 36.6935474 5.4 36.177 5.4 35.9282367 5.30097557 35.6897057 5.12479214 35.5140851 4.94860871 35.3384646 4.70976202 35.2402027 4.461 35.2409904L4.461 35.2409904zM8.031 36.177C7.65215075 36.177 7.31066293 36.405377 7.16596545 36.7555047 7.02126798 37.1056323 7.10189955 37.5084569 7.37021607 37.7759135 7.63853259 38.04337 8.04161395 38.122708 8.39127531 37.9768872 8.74093666 37.8310665 8.96821426 37.4888473 8.96700964 37.11 8.96534689 36.5942334 8.54676922 36.177 8.031 36.177L8.031 36.177zM6.432 31.305C5.96808081 31.305 5.592 31.6810808 5.592 32.145 5.592 32.6089192 5.96808081 32.985 6.432 32.985 6.89591919 32.985 7.272 32.6089192 7.272 32.145 7.272 31.9222181 7.18350025 31.7085609 7.0259697 31.5510303 6.86843914 31.3934997 6.65478185 31.305 6.432 31.305L6.432 31.305zM4.461 27.276C4.4573512 27.620184 4.66187393 27.9325116 4.97881711 28.0667611 5.2957603 28.2010106 5.66239661 28.1306122 5.90707854 27.888524 6.15176047 27.6464359 6.22606216 27.2805706 6.09519792 26.9622148 5.96433368 26.6438589 5.6542033 26.4360193 5.31 26.436 5.08590373 26.4344036 4.87039461 26.5221024 4.71108847 26.6797198 4.55178233 26.8373372 4.46179183 27.0518994 4.461 27.276L4.461 27.276zM4.833 21.93C4.82691157 22.3135231 5.05325306 22.6626813 5.40584954 22.8136873 5.75844601 22.9646933 6.16734287 22.8875876 6.44072992 22.6185401 6.71411696 22.3494925 6.79775464 21.9418816 6.65240919 21.5869143 6.50706373 21.231947 6.16157147 21.0000483 5.778 20.9999898 5.26123017 20.9983123 4.83958033 21.4132693 4.833 21.93zM7.749 16.116C7.07631717 16.116 6.531 16.6613172 6.531 17.334 6.531 18.0066828 7.07631717 18.552 7.749 18.552 8.42168283 18.552 8.967 18.0066828 8.967 17.334 8.96535092 16.6620014 8.42099857 16.1176491 7.749 16.116zM12.9 13.683C12.9 13.0763066 12.5345367 12.5293522 11.9740251 12.2971807 11.4135136 12.0650092 10.7683368 12.1933428 10.3393398 12.6223398 9.91034283 13.0513368 9.7820092 13.6965136 10.0141807 14.2570251 10.2463522 14.8175367 10.7933066 15.183 11.4 15.183 12.2284271 15.183 12.9 14.5114271 12.9 13.683zM14.772 11.811C14.772 12.6394271 15.4435729 13.311 16.272 13.311 17.1004271 13.311 17.772 12.6394271 17.772 11.811 17.772 10.9825729 17.1004271 10.311 16.272 10.311 15.4470898 10.3159496 14.7809852 10.9860749 14.781 11.811L14.772 11.811zM21.435 9.942C20.5589165 9.94365612 19.8498977 10.6549119 19.8509987 11.5309962 19.8521048 12.4070806 20.5629133 13.1165478 21.4389981 13.1159975 22.315083 13.1154459 23.025 12.405085 23.025 11.529 23.0233659 10.6555404 22.3174471 9.94694259 21.444 9.942L21.435 9.942zM26.4 10.875C25.5715729 10.875 24.9 11.5465729 24.9 12.375 24.9 13.2034271 25.5715729 13.875 26.4 13.875 27.2284271 13.875 27.9 13.2034271 27.9 12.375 27.9 11.5465729 27.2284271 10.875 26.4 10.875zM31.383 16.116C32.3647671 16.1060827 33.1535547 15.3039162 33.1469598 14.3221211 33.1403649 13.340326 32.3408723 12.5488284 31.3590605 12.5520807 30.3772487 12.5553732 29.5830501 13.3521828 29.583 14.334 29.5837587 14.8110789 29.7754647 15.2680009 30.1153377 15.6028012 30.4552106 15.9376014 30.9149637 16.1224151 31.392 16.116L31.383 16.116zM34.1039795 16.77C34.1007002 17.7504574 34.8925465 18.5481055 35.8730018 18.5519913 36.8534572 18.5558213 37.6515559 17.7644292 37.6560085 16.7839762 37.6603879 15.8035233 36.8694503 15.0049741 35.889 15 34.91116 15.0016365 34.1179456 15.7921711 34.113 16.77L34.1039795 16.77zM38.2199272 19.77C38.2151532 20.5674482 38.6913123 21.2892398 39.4263191 21.5986135 40.1613259 21.9079872 41.0103314 21.7439743 41.5772211 21.1830971 42.1441107 20.6222199 42.3171667 19.7750114 42.0156474 19.0367478 41.7141281 18.2984841 40.9974545 17.8146561 40.2 17.811 39.1137856 17.811 38.2323066 18.6897906 38.229 19.776L38.2199272 19.77zM17.463 17.4C16.791963 16.2320642 15.3011985 15.8292202 14.1332353 16.5002095 12.965272 17.1711989 12.5623672 18.6619469 13.2333088 19.8299375 13.9042504 20.9979282 15.3949819 21.4008939 16.563 20.73 17.1239632 20.4077903 17.5339394 19.8759201 17.7027253 19.2514123 17.8715113 18.6269044 17.7852785 17.9609237 17.463 17.4zM20.682 19.224C19.7854096 19.7418108 19.4782342 20.8883381 19.9958511 21.7850405 20.5134679 22.681743 21.6599288 22.9891663 22.5567431 22.4717434 23.4535575 21.9543206 23.7612289 20.8079263 23.244 19.911 22.9955415 19.4799304 22.5856984 19.1655037 22.1049889 19.0371644 21.6242794 18.9088251 21.1122543 18.9771324 20.682 19.227L20.682 19.224zM12.831 22.887C11.6671853 23.5592364 11.2677105 25.0470391 11.938289 26.2118098 12.6088675 27.3765805 14.0960999 27.7781734 15.2618243 27.109254 16.4275486 26.4403347 16.8312588 24.9536756 16.164 23.787 15.8429276 23.2240001 15.3104937 22.812374 14.6847864 22.6434161 14.0590791 22.4744583 13.3918199 22.5621348 12.831 22.887L12.831 22.887zM14.553 33.363C15.6284399 32.7408012 15.9959956 31.3646754 15.3740202 30.2891063 14.7520448 29.2135371 13.3759954 28.8456956 12.3002971 29.4674476 11.2245988 30.0891995 10.8564715 31.4651726 11.478 32.541 11.7760649 33.0585279 12.267895 33.4361056 12.8448612 33.5903385 13.4218274 33.7445714 14.0364576 33.6627694 14.553 33.363L14.553 33.363zM14.766 39.732C15.7498083 39.1610078 16.085006 37.9009331 15.5149392 36.9165883 14.9448724 35.9322434 13.6851135 35.595861 12.700233 36.1650019 11.7153525 36.7341427 11.3777856 37.9935847 11.946 38.979 12.2189795 39.454014 12.670096 39.8005763 13.1994145 39.9419159 13.7287341 40.0832555 14.2925626 40.0077048 14.766 39.732L14.766 39.732zM16.221 43.005C15.8425061 42.3475351 15.1051277 41.9829313 14.3529037 42.081302 13.6006798 42.1796727 12.9818553 42.7216314 12.7851556 43.4543161 12.588456 44.1870008 12.8526458 44.9660173 13.454462 45.4278994 14.0562781 45.8897814 14.8771173 45.9435033 15.534 45.564 16.428261 45.0454526 16.7353176 43.9017003 16.221 43.005L16.221 43.005zM15.9 48.6C15.04849 49.0929826 14.7576663 50.1827965 15.2503428 51.0344836 15.7430192 51.8861708 16.8327285 52.1773862 17.6845927 51.6850159 18.5364569 51.1926457 18.828064 50.1030411 18.336 49.251 18.0994759 48.8414431 17.7098435 48.5427095 17.2529293 48.4206031 16.7960152 48.2984968 16.3093016 48.3630344 15.9 48.6L15.9 48.6zM19.587 54.048C18.9953406 54.3895577 18.6677053 55.0539042 18.7568828 55.7312298 18.8460603 56.4085553 19.3344869 56.9654581 19.9943907 57.1422334 20.6542945 57.3190086 21.3557051 57.0808398 21.7715282 56.5387941 22.1873514 55.9967483 22.2356892 55.2575834 21.894 54.666 21.6690212 54.2749697 21.2967167 53.9904127 20.8603436 53.8759634 20.4239704 53.7615142 19.9599322 53.8267203 19.572 54.057L19.587 54.048zM24.54 58.119C24.0145801 58.4223448 23.7236298 59.0123281 23.802821 59.6138369 23.8820121 60.2153457 24.3157492 60.7099208 24.9017778 60.8669387 25.4878063 61.0239567 26.1107158 60.8124947 26.4800396 60.331159 26.8493633 59.8498233 26.8923679 59.1934065 26.589 58.668 26.3885378 58.3209199 26.0575073 58.0685038 25.6697473 57.967055 25.2819872 57.8656061 24.8697543 57.9235638 24.525 58.128L24.54 58.119zM30.69 59.766C30.1645801 60.0693448 29.8736298 60.6593281 29.952821 61.2608369 30.0320121 61.8623457 30.4657492 62.3569208 31.0517778 62.5139387 31.6378063 62.6709567 32.2607158 62.4594947 32.6300396 61.978159 32.9993633 61.4968233 33.0423679 60.8404065 32.739 60.315 32.5385378 59.9679199 32.2075073 59.7155038 31.8197473 59.614055 31.4319872 59.5126061 31.0197543 59.5705638 30.675 59.775L30.69 59.766zM37.2 59.259C36.61779 59.5954154 36.4183427 60.3399882 36.7544319 60.9223866 37.0905211 61.504785 37.8349821 61.7046493 38.4175687 61.3688864 39.0001552 61.0331235 39.2004365 60.2887745 38.865 59.706 38.7042492 59.4251111 38.4380777 59.2199629 38.1255112 59.1360487 37.8129448 59.0521345 37.4798164 59.0963895 37.2 59.259zM43.098 56.724C42.6044796 57.0089953 42.4353942 57.6400803 42.7203172 58.1336424 43.0052402 58.6272045 43.6363004 58.7963824 44.1299042 58.5115317 44.6235081 58.226681 44.7927784 57.5956456 44.508 57.102 44.3711912 56.8648504 44.1457548 56.6917822 43.8813107 56.6208887 43.6168666 56.5499952 43.3350894 56.587087 43.098 56.724L43.098 56.724zM48 53.031C47.6707355 53.2208118 47.4883587 53.5903861 47.5380126 53.9671859 47.5876665 54.3439857 47.8595583 54.6536974 48.2267545 54.751731 48.5939507 54.8497647 48.9840315 54.7167858 49.2148866 54.4148759 49.4457417 54.1129661 49.471841 53.701669 49.281 53.373 49.1567708 53.1574652 48.9518492 53.0002519 48.7114944 52.9360822 48.4711397 52.8719125 48.2151272 52.9060662 48 53.031L48 53.031zM52.143 47.829C51.8137355 48.0188118 51.6313587 48.3883861 51.6810126 48.7651859 51.7306665 49.1419857 52.0025583 49.4516974 52.3697545 49.549731 52.7369507 49.6477647 53.1270315 49.5147858 53.3578866 49.2128759 53.5887417 48.9109661 53.614841 48.499669 53.424 48.171 53.165342 47.7238955 52.5933912 47.5708382 52.146 47.829L52.143 47.829zM52.443 44.619C52.2537412 44.2910168 51.8855075 44.1093803 51.510078 44.1588231 51.1346486 44.2082658 50.8259965 44.4790457 50.7281065 44.8448454 50.6302164 45.2106451 50.7623763 45.5993888 51.0629341 45.8297295 51.3634919 46.0600702 51.773227 46.0866226 52.101 45.897 52.3182741 45.7753056 52.4780946 45.572043 52.5450952 45.3321921 52.6120958 45.0923412 52.5807521 44.8356783 52.458 44.619L52.443 44.619zM48.543 49.68C48.9439944 49.4438463 49.0777761 48.9274294 48.841879 48.5262841 48.6059818 48.1251388 48.0896506 47.9910268 47.6883544 48.2266673 47.2870583 48.4623079 47.1526161 48.9785533 47.388 49.38 47.5018279 49.577447 47.6905053 49.7206161 47.9113064 49.7770869 48.1321076 49.8335578 48.3663536 49.7985533 48.561 49.68L48.543 49.68zM44.043 51.627C43.7484765 51.7992359 43.5868136 52.1320201 43.6334789 52.4700018 43.6801442 52.8079835 43.9259351 53.0845104 44.256111 53.1704937 44.586287 53.256477 44.935735 53.1349603 45.1413253 52.8626702 45.3469156 52.59038 45.3681042 52.221014 45.195 51.927 44.9597012 51.5337727 44.4533771 51.4005296 44.055 51.627L44.043 51.627zM39.129 53.811C38.7997355 54.0008118 38.6173587 54.3703861 38.6670126 54.7471859 38.7166665 55.1239857 38.9885583 55.4336974 39.3557545 55.531731 39.7229507 55.6297647 40.1130315 55.4967858 40.3438866 55.1948759 40.5747417 54.8929661 40.600841 54.481669 40.41 54.153 40.1516224 53.7112562 39.5863662 53.5589176 39.141 53.811L39.129 53.811zM34.029 54.159C33.4497435 54.498928 33.2549723 55.2436056 33.5936191 55.8236121 33.9322659 56.4036186 34.6765113 56.6000352 35.2572648 56.2626712 35.8380184 55.9253072 36.0360795 55.1814978 35.7 54.6 35.3619763 54.0184775 34.6165614 53.8210433 34.035 54.159L34.029 54.159zM30.942 53.124C30.6386552 52.5985801 30.0486719 52.3076298 29.4471631 52.386821 28.8456543 52.4660121 28.3510792 52.8997492 28.1940613 53.4857778 28.0370433 54.0718063 28.2485053 54.6947158 28.729841 55.0640396 29.2111767 55.4333633 29.8675935 55.4763679 30.393 55.173 30.7385289 54.9750865 30.9911849 54.6479065 31.0952904 54.2635603 31.1993958 53.8792141 31.1464067 53.4692459 30.948 53.124L30.942 53.124zM24.834 49.293C24.1177303 49.7081859 23.8732762 50.6251755 24.2878197 51.3418172 24.7023631 52.0584589 25.6191332 52.3037351 26.3361463 51.8898345 27.0531594 51.4759338 27.2992576 50.559384 26.886 49.842 26.6870718 49.4966757 26.3589015 49.2447083 25.973918 49.1417083 25.5889345 49.0387083 25.1787879 49.0931436 24.834 49.293zM24.144 45.471C23.8255232 44.9093854 23.2000528 44.5949677 22.5593276 44.6744011 21.9186023 44.7538344 21.3888466 45.2114702 21.2171548 45.833853 21.045463 46.4562359 21.2656588 47.1207549 21.775036 47.5174579 22.2844133 47.9141608 22.9826236 47.9648964 23.544 47.646 24.3086053 47.2097608 24.5767992 46.2375577 24.144 45.471L24.144 45.471zM20.244 40.245C19.5318955 40.6625073 19.2909549 41.5769219 19.7048635 42.2911242 20.1187721 43.0053264 21.0319592 43.2508782 21.748241 42.8405789 22.4645228 42.4302796 22.7146796 41.5183431 22.308 40.8 22.1100865 40.4544711 21.7829065 40.2018151 21.3985603 40.0977096 21.0142141 39.9936042 20.6042459 40.0465933 20.259 40.245L20.244 40.245zM21.123 37.8C21.97451 37.3070174 22.2653337 36.2172035 21.7726572 35.3655164 21.2799808 34.5138292 20.1902715 34.2226138 19.3384073 34.7149841 18.4865431 35.2073543 18.194936 36.2969589 18.687 37.149 18.9235241 37.5585569 19.3131565 37.8572905 19.7700707 37.9793969 20.2269848 38.1015032 20.7136984 38.0369656 21.123 37.8zM20.982 32.7C21.8317495 32.2077778 22.1219402 31.1201188 21.6303271 30.2700169 21.1387139 29.4199149 20.0512632 29.1289447 19.2008092 29.6199486 18.3503551 30.1109524 18.0586057 31.1981943 18.549 32.049 18.7843746 32.4589652 19.1734809 32.7581752 19.6301452 32.8803653 20.0868094 33.0025554 20.5733447 32.9376415 20.982 32.7L20.982 32.7zM21.519 27.63C22.4556493 27.0826842 22.7727489 25.8806145 22.2279483 24.9425 21.6831476 24.0043855 20.4819331 23.6840617 19.5423602 24.2263432 18.6027873 24.7686247 18.2792415 25.9689754 18.819 26.91 19.0820011 27.3632154 19.5151261 27.6926144 20.0221256 27.8249976 20.5291252 27.9573808 21.0679996 27.8817817 21.519 27.615L21.519 27.63zM32.649 45.405C31.5563665 44.6251539 30.0385712 44.8776096 29.2572078 45.9691585 28.4758444 47.0607074 28.726191 48.578852 29.8166532 49.3617312 30.9071155 50.1446105 32.4256064 49.8963735 33.21 48.807 33.5936604 48.28116 33.7503141 47.6233786 33.6448577 46.9810532 33.5394013 46.3387278 33.1806523 45.7655648 32.649 45.39L32.649 45.405zM29.154 39.648C28.7097516 40.2632834 28.6802032 41.0856849 29.0791496 41.7312638 29.478096 42.3768426 30.2268556 42.7182755 30.9758676 42.5961633 31.7248796 42.4740511 32.3264211 41.9124773 32.4996606 41.1736144 32.6729001 40.4347515 32.3836707 39.6643207 31.767 39.222 30.9274031 38.6197806 29.7588441 38.8102919 29.154 39.648zM39.549 47.352C40.1266363 46.551488 40.1647747 45.4817211 39.6456108 44.6421069 39.126447 43.8024928 38.152368 43.3586165 37.1781111 43.5176964 36.2038541 43.6767763 35.4215578 44.4074394 35.1964279 45.3685843 34.9712979 46.3297292 35.3477334 47.3318032 36.15 47.907 37.2423728 48.6901928 38.7624856 48.4419837 39.549 47.352zM44.979 42.033C43.9704317 41.3116268 42.5681497 41.5436144 41.8456411 42.5513696 41.1231325 43.5591248 41.3535406 44.9616672 42.3604814 45.6853103 43.3674222 46.4089535 44.7702232 46.1801252 45.495 45.174 45.8440964 44.6893892 45.9858961 44.0857348 45.8890771 43.4963775 45.7922582 42.9070202 45.4647876 42.380457 44.979 42.033zM51.162 42.099C51.6499146 41.4226629 51.6821524 40.5189455 51.2436699 39.8095616 50.8051873 39.1001777 49.9824154 38.7249566 49.1592953 38.8589929 48.3361752 38.9930291 47.6749551 39.6099023 47.4841892 40.4217526 47.2934233 41.2336028 47.6107142 42.0804033 48.288 42.567 49.2115492 43.2284972 50.4960347 43.0193325 51.162 42.099L51.162 42.099zM55.68 36.123C54.839992 35.5213836 53.671399 35.7140912 53.0690346 36.553563 52.4666701 37.3930348 52.6583367 38.561799 53.4972717 39.1649109 54.3362066 39.7680228 55.505141 39.5773974 56.109 38.739 56.4004666 38.3356994 56.5190766 37.8328202 56.4385506 37.3417807 56.3580247 36.8507412 56.0850114 36.4120846 55.68 36.123L55.68 36.123zM60.378 31.662C59.5790205 31.0907871 58.4682996 31.2751364 57.8966873 32.0738302 57.3250749 32.8725239 57.5088688 33.9833369 58.3072766 34.5553485 59.1056845 35.1273602 60.2165892 34.9441217 60.789 34.146 61.0658384 33.7627538 61.1781473 33.2848141 61.1009715 32.8183797 61.0237958 32.3519453 60.763528 31.9356518 60.378 31.662L60.378 31.662zM63.708 26.214C62.9513494 25.6720017 61.8986334 25.845668 61.3561649 26.6019815 60.8136964 27.358295 60.9867082 28.4111188 61.7426844 28.9540573 62.4986605 29.4969958 63.5515916 29.3246385 64.095 28.569 64.3563867 28.2055277 64.4624771 27.7530185 64.3898797 27.311244 64.3172824 26.8694695 64.0719591 26.4747084 63.708 26.214L63.708 26.214zM65.154 20.337C64.4804697 19.8568294 63.5453524 20.0125214 63.0637348 20.6850177 62.5821173 21.3575141 62.7357983 22.292964 63.4072576 22.7760264 64.078717 23.2590887 65.0144952 23.1074192 65.499 22.437 65.7330037 22.1132044 65.8281734 21.7094389 65.7634092 21.3152221 65.698645 20.9210052 65.4792982 20.5689103 65.154 20.337L65.154 20.337zM62.373 16.5C63.0465303 16.9801706 63.9816476 16.8244786 64.4632652 16.1519823 64.9448827 15.4794859 64.7912017 14.544036 64.1197424 14.0609736 63.448283 13.5779113 62.5125048 13.7295808 62.028 14.4 61.7939963 14.7237956 61.6988266 15.1275611 61.7635908 15.5217779 61.828355 15.9159948 62.0477018 16.2680897 62.373 16.5L62.373 16.5zM59.214 10.77C59.760471 11.1618804 60.5211292 11.0367482 60.913267 10.490462 61.3054049 9.94417573 61.1806311 9.18345857 60.6345297 8.79106341 60.0884283 8.39866825 59.3276524 8.52308352 58.935 9.069 58.5459092 9.61455392 58.6705763 10.3719396 59.214 10.764L59.214 10.77zM54.477 6.432C54.9390959 6.76149232 55.5807187 6.65463771 55.9110896 6.19316952 56.2414605 5.73170133 56.1358268 5.08987638 55.674988 4.75862813 55.2141492 4.42737987 54.5721244 4.53179225 54.24 4.992 54.0796978 5.21412248 54.0145768 5.49099331 54.0590619 5.76128253 54.103547 6.03157174 54.2539662 6.27296823 54.477 6.432L54.477 6.432zM49.077 3.483C49.4973584 3.78323552 50.0814732 3.68616789 50.3821347 3.266114 50.6827961 2.84606011 50.5863206 2.26184723 50.1665716 1.96076019 49.7468227 1.65967315 49.1625123 1.75555647 48.861 2.175 48.7173295 2.37880742 48.6609213 2.63151761 48.7042879 2.87707415 48.7476546 3.1226307 48.8872107 3.3407325 49.092 3.483L49.077 3.483zM42.651 1.848C43.0713584 2.14823552 43.6554732 2.05116789 43.9561347 1.631114 44.2567961 1.21106011 44.1603206.626847228 43.7405716.325760187 43.3208227.0246731465 42.7365123.120556468 42.435.54 42.2890202.741699235 42.2297154.993379648 42.2702825 1.23903592 42.3108496 1.4846922 42.4479228 1.70394321 42.651 1.848L42.651 1.848zM39.816 4.2C40.2367046 4.4969119 40.8182283 4.3982444 41.117453 3.97918162 41.4166777 3.56011883 41.3212148 2.97806052 40.9038066 2.67653208 40.4863983 2.37500363 39.903823 2.46725896 39.6 2.883 39.451133 3.0853105 39.3901269 3.33909923 39.4307795 3.58696669 39.471432 3.83483416 39.6103088 4.05584028 39.816 4.2L39.816 4.2zM44.832 5.733C45.2107383 6.00287426 45.7364839 5.91506131 46.006959 5.53675184 46.2774341 5.15844236 46.1904558 4.63255804 45.8125761 4.36148282 45.4346964 4.09040759 44.9086747 4.17655107 44.637 4.554 44.3702279 4.93150224 44.4572148 5.45342398 44.832 5.724L44.832 5.733zM50.427 6.3C50.1502441 6.1007145 49.7806789 6.08781262 49.4906992 6.26731284 49.2007196 6.44681305 49.0474596 6.78334877 49.1024121 7.11993272 49.1573646 7.45651667 49.4097023 7.72683236 49.7417147 7.80478284 50.0737272 7.88273333 50.4199985 7.75296018 50.619 7.476 50.7501645 7.29482191 50.8036535 7.06881353 50.7676127 6.84806324 50.7315718 6.62731295 50.6089777 6.43005282 50.427 6.3L50.427 6.3zM53.454 11.244C53.8736488 11.54538 54.4581257 11.4497401 54.7598282 11.0303231 55.0615306 10.610906 54.9663401 10.0263558 54.5471551 9.72433103 54.1279702 9.42230623 53.543347 9.51704734 53.241 9.936 52.9461267 10.3536702 53.0409588 10.9306769 53.454 11.232L53.454 11.244zM55.596 14.052C55.307371 14.4515809 55.2880349 14.9857329 55.547017 15.405137 55.8059992 15.8245412 56.2922352 16.0465024 56.7787713 15.9674188 57.2653073 15.8883352 57.6562118 15.5237999 57.7690274 15.0439622 57.8818429 14.5641245 57.6943255 14.0635954 57.294 13.776 56.7518009 13.3816936 55.9928873 13.4996873 55.596 14.04L55.596 14.052zM56.196 18.99C55.7146867 19.6628241 55.8689549 20.5983038 56.5408163 21.08096 57.2126777 21.5636162 58.1484637 21.4112167 58.6324608 20.7403207 59.116458 20.0694247 58.965928 19.1333362 58.296 18.648 57.6275634 18.165566 56.69508 18.3129412 56.208 18.978L56.196 18.99zM57 23.7C56.3264697 23.2198294 55.3913524 23.3755214 54.9097348 24.0480177 54.4281173 24.7205141 54.5817983 25.655964 55.2532576 26.1390264 55.924717 26.6220887 56.8604952 26.4704192 57.345 25.8 57.5790037 25.4762044 57.6741734 25.0724389 57.6094092 24.6782221 57.544645 24.2840052 57.3252982 23.9319103 57 23.7zM52.41 30.543C53.1249121 31.0557404 54.1201192 30.8918611 54.6328777 30.1769621 55.1456362 29.4620631 54.9817823 28.4668518 54.2668963 27.9540751 53.5520103 27.4412984 52.5567949 27.605127 52.044 28.32 51.7969393 28.6630505 51.6966676 29.0903677 51.7653466 29.5075077 51.8340255 29.9246477 52.066 30.2972632 52.41 30.543L52.41 30.543zM48.543 31.914C48.0616867 32.5868241 48.2159549 33.5223038 48.8878163 34.00496 49.5596777 34.4876162 50.4954637 34.3352167 50.9794608 33.6643207 51.463458 32.9934247 51.312928 32.0573362 50.643 31.572 50.319573 31.33769 49.9160582 31.2420353 49.5218692 31.3062318 49.1276802 31.3704283 48.7753678 31.5891749 48.543 31.914L48.543 31.914zM46.308 34.227C45.5090205 33.6557871 44.3982996 33.8401364 43.8266873 34.6388302 43.2550749 35.4375239 43.4388688 36.5483369 44.2372766 37.1203485 45.0356845 37.6923602 46.1465892 37.5091217 46.719 36.711 46.995041 36.3274843 47.106867 35.8497748 47.0297317 35.3835849 46.9525964 34.9173949 46.69286 34.5011637 46.308 34.227L46.308 34.227zM42.108 38.94C42.5308132 38.3552965 42.5592938 37.5733273 42.1801364 36.9594146 41.8009789 36.3455019 41.0890275 36.0208297 40.3768932 36.1370789 39.6647588 36.2533282 39.0930142 36.7875518 38.928768 37.49017 38.7645219 38.1927883 39.0401959 38.925107 39.627 39.345 40.0109468 39.6229215 40.4897951 39.7364327 40.9576401 39.660429 41.4254851 39.5844253 41.8437755 39.3251695 42.12 38.94L42.108 38.94zM36.864 38.04C35.9823733 37.4080224 34.7554118 37.6099836 34.1228607 38.4911989 33.4903096 39.3724142 33.6914723 40.5995068 34.5722758 41.2326312 35.4530794 41.8657556 36.6803026 41.6653914 37.314 40.785 37.9432327 39.9082823 37.7476939 38.6881741 36.876 38.052L36.864 38.04z"/>
    <path d="M31.428,62.7240148 C30.9143555,62.7255388 30.4292914,62.4877835 30.1158597,62.0808516 C29.802428,61.6739196 29.6963834,61.1442317 29.829,60.648 C29.940622,60.2238225 30.2185833,59.862581 30.6,59.646 C31.3879414,59.190343 32.3960426,59.458812 32.853,60.246 C33.1473945,60.7559023 33.1477709,61.3840412 32.8539879,61.894296 C32.5602048,62.4045508 32.0167839,62.7195943 31.428,62.721 L31.428,62.7240148 Z M31.428,59.7239698 C31.1921766,59.7246784 30.9605884,59.7867109 30.756,59.904 C30.1105617,60.2768463 29.889442,61.1022411 30.2620493,61.7478174 C30.6346565,62.3933938 31.4599693,62.6148191 32.1056836,62.242451 C32.7513979,61.8700829 32.9731289,61.0448522 32.601,60.399 C32.3571784,59.9791585 31.9075004,59.7217093 31.422,59.7239698 L31.428,59.7239698 Z M37.818,61.683 C37.3243032,61.6866109 36.8664552,61.4256375 36.618,60.999 C36.2423715,60.3435449 36.4677578,59.5077372 37.122,59.13 C37.6197452,58.8429 38.243853,58.897451 38.6842423,59.26655 C39.1246316,59.6356489 39.2874252,60.2406155 39.0917409,60.7808788 C38.8960566,61.3211421 38.3836082,61.6815349 37.809,61.683 L37.818,61.683 Z M37.818,59.247 C37.2646041,59.2486998 36.8041732,59.6728372 36.757144,60.2242337 C36.7101148,60.7756303 37.0920676,61.2716154 37.6371824,61.3670082 C38.1822972,61.4624011 38.7099843,61.1255993 38.853,60.591 C38.9282012,60.3175171 38.889229,60.0252256 38.745,59.781 C38.5506763,59.4442644 38.1887154,59.2397278 37.8,59.247 L37.818,59.247 Z M25.29,61.074 C24.4863181,61.0840326 23.7923331,60.5135167 23.6467114,59.7230741 C23.5010897,58.9326315 23.9462036,58.1522615 24.7006976,57.8752344 C25.4551916,57.5982074 26.2995265,57.9051312 26.7,58.602 C26.9948565,59.111468 26.9953975,59.739568 26.7014191,60.2495432 C26.4074407,60.7595184 25.8636408,61.0738296 25.275,61.074 L25.29,61.074 Z M25.29,58.0739888 C24.8082159,58.0735238 24.3628617,58.3304 24.1220318,58.7476734 C23.8812019,59.1649468 23.8815711,59.6790729 24.123,60.096 C24.4495782,60.6650082 25.137959,60.9168505 25.754629,60.6929271 C26.3712991,60.4690038 26.7377056,59.8341503 26.6231012,59.1881708 C26.5084967,58.5421914 25.9460641,58.0721251 25.29,58.0739888 Z M43.635,58.794 C43.2100032,58.7929977 42.8182618,58.5639092 42.609,58.194 C42.2849661,57.6296398 42.478072,56.9095156 43.041,56.583 L43.041,56.583 C43.6081293,56.2678213 44.3230696,56.4605097 44.655,57.018 C44.8642939,57.3829617 44.8638213,57.8316632 44.653759,58.1961831 C44.4436966,58.5607031 44.0557105,58.7860917 43.635,58.788 L43.635,58.794 Z M43.191,56.85 C42.7716127,57.0930185 42.626918,57.6289247 42.867,58.05 C43.1162199,58.4612257 43.6446739,58.6039082 44.067,58.374 C44.4863873,58.1309815 44.631082,57.5950753 44.391,57.174 C44.1479815,56.7546127 43.6120753,56.609918 43.191,56.85 Z M20.439,57.351 C19.7812561,57.3518984 19.1729429,57.002004 18.843,56.433 C18.3337461,55.5596932 18.6276879,54.438956 19.5,53.928 C20.0682824,53.596386 20.7705689,53.5942179 21.340888,53.9223167 C21.9112072,54.2504155 22.2623558,54.8586142 22.2613507,55.5165744 C22.2603367,56.1745347 21.9073233,56.7816529 21.336,57.108 C21.0584421,57.2702426 20.7424959,57.3551856 20.421,57.3540242 L20.439,57.351 Z M20.439,53.9789894 C19.7433617,53.9771721 19.1336934,54.4439686 18.954,55.116 C18.7734087,55.7886293 19.0670354,56.4987041 19.6699381,56.8473467 C20.2728408,57.1959893 21.0347357,57.0962946 21.5276356,56.604265 C22.0205355,56.1122355 22.1215766,55.3505179 21.774,54.747 C21.4928375,54.2648371 20.9730666,53.9722509 20.415,53.982 L20.439,53.9789894 Z M34.671,56.577 C34.1766466,56.5831391 33.7176144,56.3214908 33.471,55.893 C33.2882345,55.579236 33.239572,55.2050753 33.336,54.855 C33.4288841,54.5043605 33.6578006,54.2052574 33.972,54.024 C34.6278013,53.6493517 35.4629929,53.8728725 35.844,54.525 C36.2204025,55.1805732 35.9965333,56.0170667 35.343,56.397 C35.131379,56.5187527 34.8911383,56.5819194 34.647,56.58 L34.671,56.577 Z M34.671,54.1409992 C34.1877053,54.1419123 33.7648997,54.4663911 33.639,54.933 C33.5637988,55.2064829 33.602771,55.4987744 33.747,55.743 C34.0062045,56.191955 34.5503851,56.3899323 35.0374793,56.2124869 C35.5245734,56.0350414 35.8138958,55.5334239 35.7235835,55.0229426 C35.6332711,54.5124612 35.1894085,54.1405559 34.671,54.1409992 L34.671,54.1409992 Z M39.6,55.7100166 C39.2614592,55.7113262 38.9416653,55.5546998 38.7351664,55.2864278 C38.5286676,55.0181558 38.4590884,54.6689299 38.547,54.342 C38.6201151,54.0626475 38.8029362,53.8246555 39.054,53.682 C39.4344928,53.4598519 39.9114973,53.4896081 40.2614319,53.7573213 C40.6113664,54.0250344 40.764873,54.4776428 40.65,54.903 C40.5216511,55.377749 40.0917892,55.7081286 39.6,55.7100166 L39.6,55.7100166 Z M39.6,53.8349891 C39.4622189,53.8361321 39.3269859,53.872263 39.207,53.94 C39.0252971,54.0441367 38.8933261,54.2172135 38.841,54.42 C38.7571818,54.7280168 38.8679776,55.0561352 39.1213637,55.2502881 C39.3747497,55.444441 39.7203939,55.4660624 39.996,55.305 C40.1777029,55.2008633 40.3096739,55.0277865 40.362,54.825 C40.4255842,54.5884157 40.375222,54.3357125 40.2257984,54.1415794 C40.0763747,53.9474463 39.8449781,53.8340848 39.6,53.8349891 L39.6,53.8349891 Z M29.643,55.5240148 C29.1293555,55.5255388 28.6442914,55.2877835 28.3308597,54.8808516 C28.017428,54.4739196 27.9113834,53.9442317 28.044,53.448 C28.155622,53.0238225 28.4335833,52.662581 28.815,52.446 C29.6031752,51.9921098 30.609961,52.2602285 31.068,53.046 L31.068,53.046 C31.3623945,53.5559023 31.3627709,54.1840412 31.0689879,54.694296 C30.7752048,55.2045508 30.2317839,55.5195943 29.643,55.521 L29.643,55.5240148 Z M29.643,52.524 C29.1610728,52.5247616 28.7160993,52.7823709 28.4754656,53.1999231 C28.2348318,53.6174753 28.2350355,54.1316386 28.476,54.549 C28.7171543,54.9670008 29.1629907,55.2245951 29.6455672,55.2247499 C30.1281436,55.2249044 30.574145,54.9675958 30.8155672,54.5497497 C31.0569893,54.1319036 31.0571543,53.6170007 30.816,53.199 L30.816,53.199 C30.5737897,52.7819434 30.1282874,52.5249229 29.646,52.524 L29.643,52.524 Z M48.471,54.924 C48.0824751,54.9245351 47.7232623,54.717473 47.529,54.381 C47.3825978,54.1321041 47.3425888,53.8347399 47.418,53.556 C47.5450104,53.0794588 47.9764207,52.7477595 48.4695972,52.7474558 C48.9627737,52.747153 49.3945916,53.0783216 49.5221879,53.5547063 C49.6497842,54.0310909 49.4413038,54.533759 49.014,54.78 C48.8501541,54.8758612 48.663828,54.9265833 48.474,54.927 L48.471,54.924 Z M48.471,53.0519891 C48.141079,53.0534863 47.8472004,53.2608525 47.7352091,53.5711879 C47.6232177,53.8815232 47.7169526,54.2287682 47.9698954,54.4405938 C48.2228381,54.6524193 48.5811461,54.6837351 48.867,54.519 C49.0485228,54.4160799 49.1805764,54.2439773 49.233,54.042 C49.2965842,53.8054157 49.246222,53.5527125 49.0967984,53.3585794 C48.9473747,53.1644463 48.7159781,53.0510848 48.471,53.0519891 L48.471,53.0519891 Z M44.478,53.3520111 C44.0275615,53.3535013 43.6325345,53.0516235 43.5156842,52.6166026 C43.3988339,52.1815818 43.5894338,51.7223996 43.98,51.498 L43.98,51.498 C44.4547201,51.2240282 45.0616448,51.3865014 45.336,51.861 C45.469586,52.0893428 45.5052858,52.3619597 45.435,52.617 C45.3194248,53.0505636 44.9267037,53.3521833 44.478,53.3520111 L44.478,53.3520111 Z M44.13,51.759 C43.9704393,51.8500964 43.8538002,52.001069 43.8059333,52.1784582 C43.7580664,52.3558474 43.7829251,52.545002 43.875,52.704 C44.0144878,52.9473045 44.2868692,53.0825505 44.5650101,53.0466119 C44.8431509,53.0106733 45.0722104,52.8106362 45.1452749,52.5398678 C45.2183393,52.2690995 45.1210028,51.9809872 44.898697,51.8100074 C44.6763912,51.6390277 44.3729482,51.6188925 44.13,51.759 Z M25.587,52.2390087 C24.9966107,52.2403581 24.4506562,51.9256044 24.156,51.414 C23.700343,50.6260586 23.968812,49.6179574 24.756,49.161 C25.5450781,48.7068384 26.5527927,48.9748476 27.012,49.761 C27.3071259,50.2709319 27.3073817,50.8996719 27.0126708,51.4098438 C26.7179598,51.9200157 26.1731766,52.233903 25.584,52.233 L25.587,52.2390087 Z M25.587,49.2389931 C24.976472,49.2376219 24.4417192,49.6479276 24.285,50.238 C24.1891311,50.5828398 24.2367376,50.9517901 24.417,51.261 C24.7917796,51.9064891 25.6177506,52.1277313 26.265,51.756 C26.5750561,51.5777665 26.8008543,51.2828243 26.892,50.937 C26.9883756,50.5918574 26.9396105,50.2223262 26.757,49.914 C26.5139417,49.4967195 26.0669063,49.2406173 25.584,49.242 L25.587,49.2389931 Z M16.782,52.08 C16.0905572,52.0807529 15.4512572,51.7124979 15.105,51.114 C14.8487444,50.6705298 14.7793761,50.1433534 14.9121873,49.6486879 C15.0449985,49.1540225 15.3690845,48.7324834 15.813,48.477 L15.813,48.477 C16.7409533,47.9493784 17.920898,48.27289 18.45,49.2 C18.7949262,49.7974286 18.7951323,50.5334432 18.4505409,51.131065 C18.1059494,51.7286868 17.468851,52.0972286 16.779,52.098 L16.782,52.08 Z M16.782,48.518984 C16.4967993,48.51886 16.2165228,48.5933246 15.969,48.735 L15.969,48.735 C15.1890956,49.1858368 14.9207928,50.1825814 15.369,50.964 C15.7640823,51.6516585 16.5963348,51.9557473 17.3416807,51.6847789 C18.0870265,51.4138105 18.529678,50.6462339 18.3908936,49.8653989 C18.2521092,49.084564 17.5720688,48.516533 16.779,48.518984 L16.782,48.518984 Z M31.239,49.953 C30.1168025,49.9591488 29.1184111,49.2416307 28.7664458,48.1760391 C28.4144804,47.1104474 28.7890869,45.9394276 29.694173,45.2759638 C30.5992591,44.6124999 31.8287282,44.6076691 32.739,45.264 C33.8901189,46.0978225 34.1574674,47.7019131 33.339,48.864 C32.9400681,49.420979 32.3353325,49.7956992 31.659,49.905 C31.5177259,49.9342636 31.3741974,49.9513264 31.23,49.956 L31.239,49.953 Z M31.239,45.0779725 C31.1143783,45.0775551 30.9899399,45.0875904 30.867,45.108 C29.6552384,45.3061449 28.8156537,46.425086 28.9641999,47.6439222 C29.112746,48.8627584 30.1965049,49.7472913 31.4203864,49.6485912 C32.6442679,49.5498911 33.5722763,48.5031189 33.5235866,47.2762298 C33.4748968,46.0493406 32.4668541,45.0794017 31.239,45.0779725 L31.239,45.0779725 Z M48.15,49.938 C47.6531713,49.9374479 47.2337019,49.5687417 47.1694213,49.0760886 C47.1051406,48.5834356 47.4159606,48.1194423 47.8960141,47.991428 C48.3760676,47.8634138 48.876651,48.1110328 49.0662099,48.5702783 C49.2557689,49.0295238 49.0755848,49.5581376 48.645,49.806 L48.645,49.806 C48.4921513,49.895395 48.3180682,49.9420244 48.141,49.9410325 L48.15,49.938 Z M48.15,48.252 C47.8350528,48.2521454 47.5594518,48.4637676 47.478,48.768 C47.4084707,49.0389333 47.5078902,49.3251671 47.7303976,49.4946653 C47.9529049,49.6641636 48.2552639,49.6839904 48.498,49.545 L48.498,49.545 C48.657871,49.4533942 48.7744624,49.3016514 48.821798,49.1235792 C48.8691337,48.945507 48.843281,48.7558994 48.75,48.597 C48.6234261,48.3801346 48.3890326,48.24915 48.138,48.255 L48.15,48.252 Z M52.629,49.722 C52.2404751,49.7225351 51.8812623,49.515473 51.687,49.179 C51.5405978,48.9301041 51.5005888,48.6327399 51.576,48.354 C51.7030104,47.8774588 52.1344207,47.5457595 52.6275972,47.5454558 C53.1207737,47.545153 53.5525916,47.8763216 53.6801879,48.3527063 C53.8077842,48.8290909 53.5993038,49.331759 53.172,49.578 C53.0037677,49.6764568 52.811912,49.7272727 52.617,49.725 L52.629,49.722 Z M52.629,47.85 C52.299079,47.8514863 52.0052004,48.0588525 51.8932091,48.3691879 C51.7812177,48.6795232 51.8749526,49.0267682 52.1278954,49.2385938 C52.3808381,49.4504193 52.7391461,49.4817351 53.025,49.317 C53.2077093,49.214843 53.3421209,49.0440241 53.3984369,48.8424126 C53.454753,48.640801 53.4283208,48.4250537 53.325,48.243 C53.1785351,47.9913377 52.9049436,47.8412665 52.614,47.853 L52.629,47.85 Z M37.584,48.513 C36.389599,48.5130346 35.3505625,47.6950729 35.0701847,46.5340467 C34.7898068,45.3730204 35.3410404,44.1710221 36.4038234,43.6259663 C37.4666064,43.0809104 38.7644088,43.3346174 39.5436895,44.2397777 C40.3229702,45.1449381 40.3809648,46.4660342 39.684,47.436 L39.684,47.436 C39.2874997,47.9946792 38.6833218,48.3708042 38.007,48.48 C37.8621342,48.5031732 37.7157054,48.5152085 37.569,48.516 L37.584,48.513 Z M37.584,43.6409725 C37.4593783,43.6405551 37.3349399,43.6505904 37.212,43.671 C36.6137358,43.7670126 36.0788837,44.0987289 35.727,44.592 C35.1822873,45.3443069 35.1461781,46.3511934 35.635602,47.1405867 C36.1250259,47.9299801 37.0429456,48.3453687 37.959,48.192 C38.5561726,48.0952338 39.0898185,47.7635955 39.441,47.271 L39.441,47.271 C39.9396779,46.5740785 40.0073046,45.6569832 39.616247,44.8944525 C39.2251894,44.1319217 38.4409576,43.6516951 37.584,43.65 L37.584,43.6409725 Z M22.767,48.0000464 C22.2239883,48.0028115 21.7107969,47.751953 21.3794565,47.3217401 C21.048116,46.8915272 20.9366205,46.3312914 21.078,45.807 C21.283073,45.0457518 21.9735988,44.5169391 22.7619855,44.517384 C23.5503723,44.51783 24.2403001,45.0474225 24.4445128,45.808902 C24.6487255,46.5703814 24.3163711,47.3741285 23.634,47.769 C23.3700566,47.9202098 23.0711882,47.9998391 22.767,48.0000464 L22.767,48.0000464 Z M22.767,44.814 C22.2513005,44.8142885 21.7749547,45.0897643 21.5174981,45.5366 C21.2600415,45.9834357 21.2606141,46.533701 21.519,46.98 C21.9174735,47.6709082 22.8005918,47.9079734 23.4915,47.5095 C24.1824082,47.1110265 24.4194734,46.2279082 24.021,45.537 L24.021,45.537 C23.7590345,45.0906689 23.2785093,44.8183713 22.761,44.823 L22.767,44.814 Z M43.674,46.251 C43.1728633,46.2508925 42.6845917,46.0923355 42.279,45.798 C41.2023721,45.0257025 40.9552813,43.5270428 41.727,42.45 C42.5009972,41.3772667 43.9970633,41.1330658 45.072,41.904 L45.072,41.904 C46.1486279,42.6762975 46.3957187,44.1749572 45.624,45.252 C45.2547942,45.76897 44.69416,46.1168009 44.067,46.218 C43.9353519,46.2427484 43.8019157,46.2567944 43.668,46.26 L43.674,46.251 Z M43.674,41.751 C43.5584741,41.751046 43.4431266,41.7600732 43.329,41.778 C42.7800263,41.866228 42.2893883,42.1709855 41.967,42.624 C41.4688988,43.3143918 41.4368912,44.2371952 41.8859603,44.9604397 C42.3350294,45.6836841 43.1763128,46.0642533 44.016,45.924 C44.5642523,45.8358731 45.0545841,45.5323858 45.378,45.081 C45.7027518,44.6283181 45.8343135,44.0651428 45.7437271,43.5154349 C45.6531406,42.9657271 45.3478309,42.4745439 44.895,42.15 L44.895,42.15 C44.5383083,41.8942316 44.1099092,41.7577319 43.671,41.76 L43.674,41.751 Z M51.651,46.164 C51.2611224,46.169631 50.8981498,45.9658167 50.7,45.63 C50.554571,45.3808007 50.5145941,45.0838717 50.5889376,44.8050834 C50.6632812,44.526295 50.8457984,44.2886978 51.096,44.145 C51.3474702,43.997488 51.6474856,43.9566574 51.9292309,44.0316017 C52.2109763,44.106546 52.451055,44.2910415 52.596,44.544 L52.596,44.544 C52.7901294,44.8802411 52.789987,45.294541 52.5956264,45.6306486 C52.4012659,45.9667562 52.0422577,46.1735352 51.654,46.173002 L51.651,46.164 Z M51.651,44.289 C51.5128216,44.2900996 51.3773353,44.3273324 51.258,44.397 C50.9516238,44.5760442 50.8032115,44.9381685 50.8958139,45.2807294 C50.9884163,45.6232903 51.2990646,45.8613194 51.653921,45.8616172 C52.0087774,45.8619138 52.3198239,45.6244053 52.413,45.282 C52.4701968,45.0797526 52.4420061,44.862901 52.335,44.682 L52.335,44.682 C52.1902058,44.4398327 51.9271159,44.2934174 51.645,44.298 L51.651,44.289 Z M14.601,45.9660032 C13.6177406,45.9672458 12.7756793,45.2619822 12.6043958,44.2937558 C12.4331123,43.3255293 12.9821117,42.374181 13.9061235,42.0380222 C14.8301353,41.7018634 15.8620975,42.0780521 16.353,42.93 L16.353,42.93 C16.713813,43.5561812 16.7135633,44.3271923 16.3523447,44.9531396 C15.9911261,45.5790869 15.323695,45.9650843 14.601,45.9660032 Z M14.601,42.219 C13.822433,42.2229298 13.1433586,42.748781 12.9446937,43.5015853 C12.7460287,44.2543896 13.0772021,45.0468451 13.7524469,45.4344357 C14.4276918,45.8220262 15.2790036,45.7083172 15.8288516,45.1570919 C16.3786995,44.6058667 16.4902786,43.7542731 16.101,43.08 L16.101,43.08 C15.7903226,42.5430967 15.2152934,42.2143449 14.595,42.219 L14.601,42.219 Z M21,43.2000335 C20.2525663,43.2033602 19.5965818,42.7029829 19.4022416,41.9812486 C19.2079015,41.2595143 19.5239377,40.4974027 20.172,40.125 L20.172,40.125 C20.6834194,39.8076841 21.3270458,39.7940059 21.8514845,40.089308 C22.3759231,40.3846101 22.6979682,40.9420409 22.6918318,41.5438727 C22.6856953,42.1457046 22.352351,42.6964528 21.822,42.981 C21.5721779,43.1253827 21.2885421,43.2009499 21,43.2000335 Z M20.322,40.383 C19.6765617,40.7558463 19.455442,41.5812411 19.8280493,42.2268174 C20.2006565,42.8723938 21.0259693,43.0938191 21.6716836,42.721451 C22.3173979,42.3490829 22.5391289,41.5238522 22.167,40.878 C21.9898501,40.5656973 21.6948609,40.3374781 21.3480774,40.2444387 C21.001294,40.1513992 20.6316842,40.2013113 20.322,40.383 L20.322,40.383 Z M49.5,43.107 C49.0377418,43.1073115 48.5872392,42.9613444 48.213,42.69 C47.2250479,41.9768235 47.001558,40.5981526 47.7136176,39.6093952 C48.4256772,38.6206377 49.8040947,38.39559 50.7936562,39.1065317 C51.7832176,39.8174735 52.009823,41.1956357 51.3,42.186 L51.3,42.186 C50.9608046,42.6662819 50.4431721,42.9904776 49.863,43.086 C49.742844,43.1035727 49.6213809,43.1105995 49.5,43.107 L49.5,43.107 Z M49.5,38.982 C49.3994273,38.9827272 49.2990864,38.9917579 49.2,39.009 C48.6997089,39.087946 48.2521555,39.364694 47.958,39.777 C47.3462091,40.6369452 47.5431749,41.8294588 48.399,42.447 C49.2550814,43.0611743 50.4467504,42.8665887 51.063,42.012 C51.4810781,41.4294763 51.5385054,40.6621368 51.2117903,40.0238732 C50.8850751,39.3856096 50.2290223,38.9834871 49.512,38.982 L49.5,38.982 Z M30.687,42.768 C30.2633199,42.7676528 29.8506172,42.6332356 29.508,42.384 C28.6025415,41.7313066 28.394719,40.4696229 29.043,39.561 C29.3559675,39.1252234 29.8292958,38.8316953 30.3587686,38.745044 C30.8882415,38.6583928 31.4304457,38.7857232 31.866,39.099 C32.5791952,39.6119096 32.8803432,40.5261606 32.6115873,41.3625182 C32.3428313,42.1988758 31.5654769,42.7665598 30.687,42.768 L30.687,42.768 Z M30.687,39.0179681 C30.5925947,39.017594 30.4983039,39.0246157 30.405,39.039 C29.4745519,39.1843691 28.8246902,40.0381947 28.9324301,40.973747 C29.04017,41.9092992 29.8671024,42.5930545 30.8062376,42.5231189 C31.7453728,42.4531833 32.4619099,41.6544888 32.4298924,40.7132976 C32.3978748,39.7721065 31.6287168,39.0239525 30.687,39.0179681 L30.687,39.0179681 Z M35.739,41.766 C35.2972384,41.7656837 34.8668269,41.6260624 34.509,41.367 C33.8948605,40.9264915 33.5623806,40.1918054 33.6368023,39.4396907 C33.7112241,38.687576 34.181241,38.0322969 34.8698023,37.7206907 C35.5583636,37.4090845 36.3608605,37.4884915 36.975,37.929 L36.975,37.929 C37.6707852,38.4297962 37.9960699,39.3006324 37.7989888,40.1349422 C37.6019077,40.9692521 36.9213316,41.6024833 36.075,41.739 C35.9598672,41.7569379 35.8435218,41.766 35.727,41.766 L35.739,41.766 Z M35.739,37.8299516 C35.6385478,37.8306568 35.538279,37.8386783 35.439,37.854 C34.5815372,37.9941967 33.9425543,38.7206356 33.9128963,39.5889776 C33.8832383,40.4573197 34.4711673,41.2256634 35.3170663,41.424038 C36.1629653,41.6224125 37.0311849,41.1955549 37.3906634,40.4045602 C37.7501419,39.6135654 37.5007364,38.6787876 36.795,38.172 L36.795,38.172 C36.4853286,37.9477908 36.1123116,37.8280051 35.73,37.8299516 L35.739,37.8299516 Z M13.746,40.1580058 C12.672591,40.1587996 11.7536782,39.3885077 11.5670335,38.3314499 C11.3803889,37.274392 11.9799397,36.235985 12.9887149,35.8691334 C13.9974901,35.5022818 15.1240233,35.9129804 15.66,36.843 C16.056123,37.5266225 16.0567773,38.3698027 15.6617159,39.0540391 C15.2666545,39.7382756 14.5360958,40.1592713 13.746,40.1580058 L13.746,40.1580058 Z M13.746,36.036 C13.4112613,36.0367864 13.0824885,36.1246659 12.792,36.291 C12.1513358,36.6061011 11.7393064,37.2515916 11.723216,37.9653707 C11.7071255,38.6791497 12.0896491,39.3425514 12.7154634,39.6862023 C13.3412776,40.0298531 14.1063409,39.9966211 14.7,39.6 L14.7,39.6 C15.6132309,39.0720812 15.9271883,37.9048039 15.402,36.99 C15.0569434,36.3947865 14.4189779,36.030562 13.731,36.036 L13.746,36.036 Z M40.689,39.8310063 C40.285092,39.8317346 39.8913046,39.7046725 39.564,39.468 C38.6958946,38.8449693 38.4971216,37.6362147 39.12,36.768 C39.4164462,36.3508434 39.8684904,36.0707491 40.374,35.991 C41.1442584,35.864882 41.9147423,36.2146208 42.3268796,36.8774531 C42.7390169,37.5402854 42.7118413,38.3859946 42.258,39.021 L42.258,39.021 C41.9609399,39.4380342 41.5093928,39.7189008 41.004,39.801 C40.8948981,39.8191847 40.7845926,39.8292125 40.674,39.8310063 L40.689,39.8310063 Z M40.689,36.27 C39.9171279,36.2698668 39.250713,36.8105097 39.0917172,37.5658287 C38.9327213,38.3211478 39.3246287,39.0845691 40.0310522,39.3956195 C40.7374758,39.7066698 41.5652142,39.4802793 42.015,38.853 L42.015,38.853 C42.5377209,38.1194541 42.3686996,37.1013021 41.637,36.576 C41.3569293,36.3737489 41.019446,36.2665112 40.674,36.27 L40.689,36.27 Z M54.6,39.669 C53.5155068,39.6686416 52.6244145,38.812775 52.5803388,37.7291777 C52.5362631,36.6455805 53.3549013,35.7201699 54.4357828,35.6317342 C55.5166643,35.5432984 56.4748389,36.3233334 56.6074862,37.3996838 C56.7401335,38.4760343 56.0000118,39.4653639 54.93,39.642 C54.820899,39.6598099 54.710545,39.6688388 54.6,39.669 L54.6,39.669 Z M54.6,35.919 C54.5055158,35.9195862 54.4112244,35.927611 54.318,35.943 C53.8675962,36.0157642 53.4648289,36.2651992 53.199,36.636 C52.7972861,37.2030876 52.7750999,37.9558553 53.1427182,38.5456173 C53.5103366,39.1353793 54.1959582,39.4469467 54.882,39.336 C55.5708186,39.2245478 56.1239255,38.7077624 56.2818362,38.0280883 C56.4397469,37.3484142 56.1711283,36.6407148 55.602,36.237 L55.602,36.237 C55.3101423,36.0274867 54.959261,35.9161292 54.6,35.919 L54.6,35.919 Z M8.031,38.196 C7.43121876,38.196 6.945,37.7097812 6.945,37.11 C6.945,36.5102188 7.43121876,36.024 8.031,36.024 C8.63078124,36.024 9.117,36.5102188 9.117,37.11 C9.117,37.7097812 8.63078124,38.196 8.031,38.196 L8.031,38.196 Z M8.031,36.3269885 C7.71282017,36.3269885 7.42602808,36.5188313 7.30454809,36.8129078 C7.1830681,37.1069844 7.25086661,37.4452911 7.4762835,37.6698476 C7.70170039,37.8944041 8.04026388,37.9609084 8.33387372,37.8383047 C8.62748357,37.7157011 8.81821443,37.4281775 8.81701148,37.11 C8.81701148,36.9018147 8.73409544,36.7021996 8.58660497,36.555272 C8.4391145,36.4083445 8.23918381,36.3262024 8.031,36.3269885 L8.031,36.3269885 Z M20.235,38.1870414 C19.4101639,38.1859309 18.6775752,37.6597431 18.4131484,36.8784402 C18.1487216,36.0971373 18.4111657,35.2341872 19.0658123,34.7323969 C19.7204589,34.2306066 20.6219609,34.2013855 21.3077291,34.6597278 C21.9934973,35.1180701 22.3112749,35.962213 22.098,36.759 C21.9665038,37.2536484 21.6423693,37.6750233 21.198,37.929 C20.9058195,38.099502 20.5732867,38.1885918 20.235,38.1870414 L20.235,38.1870414 Z M20.235,34.628994 C19.6521491,34.627886 19.113115,34.9382593 18.8214757,35.4429007 C18.5298363,35.947542 18.5300362,36.5695462 18.822,37.074 C19.2728368,37.8539044 20.2695814,38.1222072 21.051,37.674 L21.051,37.674 C21.6926355,37.3059341 22.005731,36.5517555 21.8134264,35.8374814 C21.6211218,35.1232072 20.9716986,34.6281683 20.232,34.632 L20.235,34.628994 Z M45.276,37.6050606 C44.8727845,37.6042297 44.4801114,37.4761385 44.154,37.239 C43.5771341,36.8440927 43.259077,36.167983 43.3226656,35.4717916 C43.3862542,34.7756002 43.8215353,34.1682987 44.4603988,33.8844335 C45.0992623,33.6005683 45.8417097,33.6845714 46.401,34.104 L46.401,34.104 C47.0368772,34.5567622 47.3372059,35.3481255 47.1618249,36.1087666 C46.9864439,36.8694077 46.3699278,37.4493742 45.6,37.578 C45.4909978,37.5966059 45.3805769,37.6056404 45.27,37.6050606 L45.276,37.6050606 Z M45.276,34.0409891 C45.1866256,34.0419102 45.0974178,34.0489266 45.009,34.062 C44.3574463,34.1681567 43.8343772,34.6570448 43.6844974,35.2999503 C43.5346176,35.9428559 43.7875632,36.6126553 44.325,36.996 C44.796898,37.3534504 45.4255709,37.4267555 45.9670504,37.1874679 C46.5085298,36.9481802 46.8775714,36.4339706 46.9309616,35.8443877 C46.9843519,35.2548048 46.7136856,34.6826658 46.224,34.35 L46.224,34.35 C45.9479915,34.1483604 45.6148163,34.0401047 45.273,34.0409891 L45.276,34.0409891 Z M4.476,37.26 C3.87622214,37.2583409 3.39135067,36.7707807 3.39299982,36.1710028 C3.39466589,35.5712249 3.88222487,35.0863522 4.48200274,35.0879999 C5.08178061,35.0896644 5.56665456,35.5772221 5.56500842,36.177 C5.56423704,36.4676506 5.44699855,36.7458663 5.23951295,36.9494052 C5.03202735,37.152944 4.75161164,37.2648184 4.461,37.26 L4.476,37.26 Z M4.476,35.391 C4.04229856,35.3926554 3.69190002,35.7452892 3.69299737,36.1789924 C3.69410506,36.6126956 4.04629194,36.9635433 4.47999619,36.9629949 C4.91370043,36.962444 5.265,36.6107046 5.265,36.177 C5.26265007,35.9669485 5.17631669,35.7665778 5.02526387,35.6205976 C4.87421104,35.4746175 4.67100926,35.3951762 4.461,35.4 L4.476,35.391 Z M59.355,35.0370012 C58.9520844,35.037307 58.5593806,34.9102557 58.233,34.674 C57.3648946,34.0509693 57.1661216,32.8422147 57.789,31.974 C58.0847305,31.5560819 58.537127,31.2757692 59.043,31.197 C59.5476563,31.1124105 60.0651713,31.2334161 60.48,31.533 L60.48,31.533 C60.8975462,31.831687 61.1790444,32.2842778 61.262348,32.7908539 C61.3456516,33.29743 61.22391,33.8163313 60.924,34.233 C60.6281101,34.6498569 60.177541,34.9307873 59.673,35.013 C59.5627264,35.0290423 59.4514343,35.0370634 59.34,35.0370012 L59.355,35.0370012 Z M59.355,31.476 C59.2655657,31.475421 59.1762441,31.4824463 59.088,31.497 C58.2224281,31.6668616 57.6484676,32.4937567 57.7920338,33.3640764 C57.9356001,34.2343962 58.7447311,34.8331392 59.619,34.716 C60.0460851,34.6485827 60.4279052,34.4117029 60.678,34.059 C61.2013497,33.3262339 61.0336954,32.308237 60.303,31.782 L60.303,31.782 C60.0235672,31.5807366 59.6873599,31.4735705 59.343,31.476 L59.355,31.476 Z M49.773,34.44 C49.4293061,34.4441774 49.0931598,34.3391316 48.813,34.14 C48.0737924,33.6086197 47.9046404,32.5789403 48.435,31.839 C48.9673154,31.100795 49.9968406,30.9330105 50.736,31.464 C51.4736919,31.9963195 51.6426232,33.0246548 51.114,33.765 C50.8054438,34.1985939 50.3051675,34.4548875 49.773,34.4520478 L49.773,34.44 Z M49.773,31.44 C49.1863309,31.4388047 48.666359,31.8174595 48.4874317,32.3761787 C48.3085045,32.934898 48.5117775,33.5451686 48.99,33.885 C49.5922835,34.3215102 50.4343808,34.1872044 50.871,33.585 C51.3060804,32.9813498 51.1720535,32.1396608 50.571,31.701 C50.3369062,31.5275691 50.0523093,31.4358656 49.761,31.44 L49.773,31.44 Z M13.443,33.816 C12.5778775,33.8237444 11.7755439,33.3652681 11.343,32.616 C10.8009199,31.6769894 10.9557379,30.4911487 11.7207254,29.722783 C12.4857128,28.9544172 13.6708598,28.7943754 14.6122499,29.3323126 C15.55364,29.8702498 16.0174479,30.9725515 15.7438495,32.021711 C15.4702511,33.0708705 14.5272036,33.8062944 13.443,33.816 Z M13.443,29.316 C12.5523312,29.3039762 11.7509769,29.8551622 11.4436249,30.6912067 C11.1362729,31.5272511 11.3897997,32.4662393 12.0761731,33.0339778 C12.7625466,33.6017164 13.7324188,33.6746713 14.496,33.216 C15.4997854,32.6358953 15.8435638,31.3520978 15.264,30.348 C14.8799191,29.6999973 14.1781864,29.3073476 13.425,29.319 L13.443,29.316 Z M6.432,33.1320091 C6.03130977,33.1320091 5.6701315,32.8904665 5.51707576,32.5201604 C5.36402001,32.1498543 5.44927151,31.7238033 5.73303191,31.4409028 C6.0167923,31.1580023 6.44310007,31.0740442 6.81293994,31.2282231 C7.18277982,31.382402 7.42321421,31.7443116 7.42200912,32.145 C7.42200912,32.4072893 7.3176023,32.6587923 7.13185454,32.8439772 C6.94610678,33.0291621 6.69428808,33.1327972 6.432,33.1320091 Z M6.432,31.455 C6.05092352,31.455 5.742,31.7639235 5.742,32.145 C5.742,32.5260765 6.05092352,32.835 6.432,32.835 C6.81307648,32.835 7.122,32.5260765 7.122,32.145 C7.122,31.7639235 6.81307648,31.455 6.432,31.455 Z M20.1,33.075015 C19.1282155,33.0776921 18.3051789,32.359199 18.1766408,31.3959491 C18.0481028,30.4326992 18.6539413,29.523534 19.5924286,29.2713156 C20.5309158,29.0190971 21.5108926,29.5020744 21.8825423,30.3999881 C22.2541919,31.2979017 21.9022128,32.3321804 21.06,32.817 C20.7679272,32.9851316 20.4370072,33.0740664 20.1,33.075015 Z M20.1,29.5139706 C19.8142633,29.5127642 19.5334542,29.5884065 19.287,29.733 C18.9120064,29.9483943 18.6380487,30.3040569 18.5255015,30.7216069 C18.4129543,31.1391569 18.4710553,31.5843232 18.687,31.959 C19.0818917,32.6463342 19.9135822,32.9505097 20.6587409,32.6801281 C21.4038997,32.4097465 21.8470082,31.6430089 21.7092462,30.8623749 C21.5714842,30.0817409 20.8926959,29.5129895 20.1,29.5139706 Z M2.022,31.0680093 C1.58140439,31.0667224 1.18524479,30.7993679 1.01921042,30.3912519 C0.85317605,29.9831358 0.950175719,29.5151488 1.26474343,29.2066471 C1.57931114,28.8981454 2.04909805,28.8102757 2.45390411,28.9842245 C2.85871018,29.1581732 3.11830087,29.559463 3.111,30 C3.10115734,30.5939097 2.61598874,31.0697224 2.022,31.0680093 Z M2.022,29.1989875 C1.59026849,29.2007265 1.24074533,29.5503548 1.2391377,29.9820868 C1.23755194,30.4138188 1.58447949,30.7660229 2.01618642,30.7709427 C2.44789334,30.7758625 2.80275733,30.4316563 2.811,30 C2.81503999,29.7884318 2.73360292,29.5841716 2.58510786,29.4334181 C2.43661279,29.2826646 2.23360505,29.1981538 2.022,29.1989875 Z M53.322,30.999 C52.957728,30.9982395 52.6029467,30.8827782 52.308,30.669 L52.308,30.669 C51.5272966,30.1065009 51.3488521,29.0183921 51.909,28.236 C52.1780617,27.8603766 52.5856915,27.6074313 53.0417225,27.5331152 C53.4977534,27.458799 53.9646013,27.5692369 54.339,27.84 C54.9137665,28.2490358 55.1846788,28.9646331 55.0248983,29.6517553 C54.8651177,30.3388775 54.3062689,30.8615255 53.61,30.975 C53.5196371,30.988676 53.4283915,30.9956949 53.337,30.996 L53.322,30.999 Z M52.5,30.423 C52.8100079,30.6466558 53.1963531,30.7375748 53.5735684,30.6756439 C53.9507837,30.613713 54.2877774,30.4040369 54.51,30.093 C54.8509311,29.6182915 54.8718495,28.9848121 54.562978,28.4886461 C54.2541065,27.9924802 53.6764494,27.731624 53.1,27.828 C52.7228103,27.8872157 52.3853985,28.0959352 52.164,28.407 C51.6999248,29.055815 51.8489279,29.9578879 52.497,30.423 L52.5,30.423 Z M62.724,29.421 C62.3403293,29.4227625 61.966133,29.3018845 61.656,29.076 C60.8343046,28.4823828 60.6454209,27.3370239 61.233,26.511 C61.8283009,25.6921737 62.9734472,25.5084676 63.795,26.1 L63.795,26.1 C64.6163226,26.6925074 64.8052723,27.836926 64.218,28.662 C63.9354463,29.0619463 63.5021416,29.3295119 63.018,29.403 C62.9206955,29.4174006 62.8223345,29.4234227 62.724,29.421 L62.724,29.421 Z M62.724,26.046 C62.6396116,26.0470837 62.5554038,26.054101 62.472,26.067 C62.0685515,26.1338178 61.7098741,26.3624612 61.479,26.7 C60.9848101,27.3895348 61.1418048,28.3489464 61.83,28.845 C62.5199391,29.3374581 63.4780112,29.1806826 63.975,28.494 C64.3087289,28.0250077 64.3534575,27.4091804 64.0910013,26.896886 C63.8285451,26.3845917 63.3026031,26.0611277 62.727,26.058 L62.724,26.046 Z M5.31,28.263 C4.90930977,28.263 4.5481315,28.0214665 4.39507576,27.6511604 C4.24202001,27.2808543 4.32727151,26.8548033 4.61103191,26.5719028 C4.8947923,26.2890023 5.32110007,26.2050442 5.69093994,26.3592231 C6.06077982,26.513402 6.30121421,26.8753116 6.30000912,27.276 C6.29509183,27.8202274 5.85423975,28.2597435 5.31,28.263 Z M5.31,26.586 C4.92892352,26.586 4.62,26.8949235 4.62,27.276 C4.62,27.6570765 4.92892352,27.966 5.31,27.966 C5.69107648,27.966 6,27.6570765 6,27.276 C5.99674044,26.8962819 5.68971813,26.5892596 5.31,26.586 L5.31,26.586 Z M20.538,28.0290008 C19.5099921,28.0296026 18.6299869,27.291923 18.4510795,26.2796025 C18.2721721,25.267282 18.8460277,24.2726614 19.8119706,23.9208731 C20.7779135,23.5690847 21.8569958,23.961719 22.371,24.852 C22.7492335,25.5071194 22.7493519,26.3142322 22.3713106,26.9694625 C21.9932693,27.6246929 21.2944667,28.0285566 20.538,28.0290008 L20.538,28.0290008 Z M20.538,24.0929576 C19.8870676,24.0898501 19.2842936,24.4355273 18.9582712,24.9989386 C18.6322488,25.5623498 18.6329085,26.2572087 18.96,26.82 C19.4641094,27.6890404 20.5760546,27.986811 21.447,27.486 L21.447,27.486 C22.1587636,27.0756723 22.5068824,26.2389811 22.2962437,25.444873 C22.0856049,24.650765 21.3685615,24.0966102 20.547,24.0929576 L20.538,24.0929576 Z M14.055,27.582 C12.800491,27.5819064 11.7269922,26.6814287 11.5086586,25.446065 C11.2903251,24.2107014 11.990139,22.996815 13.1686188,22.566724 C14.3470986,22.1366329 15.6642901,22.6144049 16.293,23.7 C16.7552717,24.4994387 16.7555841,25.4848514 16.2938195,26.2845831 C15.832055,27.0843148 14.97847,27.5766877 14.055,27.576 L14.055,27.582 Z M14.055,22.7099489 C13.6542916,22.7080934 13.2601214,22.8115501 12.912,23.01 L12.912,23.01 C11.9119585,23.5791554 11.4889212,24.8015608 11.9232428,25.8671056 C12.3575643,26.9326503 13.5146023,27.5110089 14.6275662,27.2188924 C15.7405302,26.9267758 16.4643943,25.8547421 16.3194405,24.7132479 C16.1744867,23.5717536 15.2056516,22.714669 14.055,22.7099489 Z M56.1,26.553 C55.7573887,26.5561307 55.4225127,26.4511539 55.143,26.253 C54.4027887,25.7225561 54.2322684,24.6927212 54.762,23.952 C55.2943154,23.213795 56.3238406,23.0460105 57.063,23.577 C57.6583141,23.9900555 57.913752,24.743659 57.6922924,25.4335644 C57.4708328,26.1234697 56.8245007,26.587605 56.1,26.577 L56.1,26.553 Z M56.1,23.5529812 C56.0256369,23.5530348 55.9513973,23.5590542 55.878,23.571 C55.339006,23.658923 54.9064394,24.0635858 54.7828233,24.5955294 C54.6592073,25.127473 54.8690084,25.6814128 55.314,25.998 C55.9162835,26.4345102 56.7583808,26.3002044 57.195,25.698 C57.6300804,25.0943498 57.4960535,24.2526608 56.895,23.814 C56.6651147,23.6434772 56.3862239,23.5519168 56.1,23.5529812 Z M44.031,25.263 C42.914282,25.2613419 42.0103472,24.3547194 42.0119999,23.2380015 C42.0136617,22.1212835 42.9202835,21.217348 44.0370015,21.2189999 C45.1537194,21.2206609 46.0576556,22.127282 46.0560046,23.244 C46.0543611,24.3560438 45.155034,25.2580515 44.043,25.263 L44.031,25.263 Z M44.031,21.522 C43.0803579,21.5236562 42.3108975,22.2953537 42.3119988,23.2459965 C42.3131048,24.1966394 43.0843549,24.9665482 44.0349983,24.9659977 C44.9856416,24.965446 45.756,24.1946435 45.756,23.244 C45.7543762,22.2971456 44.9898329,21.5285854 44.043,21.522 L44.031,21.522 Z M1.2,25.086 C0.721925627,25.086 0.290925535,24.7980149 0.107974393,24.3563318 C-0.0749767496,23.9146487 0.0261501533,23.4062494 0.364199785,23.0681998 C0.702249416,22.7301502 1.21064869,22.6290233 1.65233182,22.8119744 C2.09401495,22.9949255 2.382,23.4259256 2.382,23.904 C2.382,24.5568006 1.85280057,25.086 1.2,25.086 L1.2,25.086 Z M1.2,23.022 C0.712884851,23.022 0.318,23.4168849 0.318,23.904 C0.318,24.3911151 0.712884851,24.786 1.2,24.786 C1.68711515,24.786 2.082,24.3911151 2.082,23.904 C2.08035386,23.4175683 1.68643166,23.0236461 1.2,23.022 L1.2,23.022 Z M64.296,23.205 C63.5356785,23.2037478 62.8750259,22.6821978 62.6973264,21.9429324 C62.5196268,21.2036671 62.8710682,20.4388369 63.5477583,20.0921657 C64.2244483,19.7454945 65.0505012,19.9070894 65.5466741,20.4831995 C66.042847,21.0593096 66.0801742,21.9001918 65.637,22.518 C65.3238291,22.9462211 64.8265029,23.2010035 64.296,23.205 L64.296,23.205 Z M64.296,20.205 C64.2226316,20.2050257 64.149388,20.2110458 64.077,20.223 C63.7239677,20.2791224 63.4083088,20.4747877 63.201,20.766 C62.879177,21.2078058 62.8555186,21.8000715 63.1410761,22.2661394 C63.4266335,22.7322074 63.9650486,22.9800935 64.5048183,22.8940058 C65.044588,22.8079181 65.4791822,22.4048471 65.6055944,21.8730743 C65.7320066,21.3413014 65.5252878,20.7857785 65.082,20.466 L65.082,20.466 C64.8503692,20.2944375 64.5692392,20.2028333 64.281,20.205 L64.296,20.205 Z M5.796,23.022 C5.3528412,23.0219983 4.95337598,22.7548844 4.78406807,22.3453425 C4.61476016,21.9358006 4.70899488,21.4645871 5.02278503,21.1516567 C5.33657518,20.8387262 5.80804541,20.7457846 6.21712126,20.9162155 C6.62619711,21.0866463 6.89221413,21.4868429 6.89100825,21.93 C6.89023677,22.2230373 6.77205006,22.503542 6.56287675,22.7087686 C6.35370344,22.9139953 6.0709987,23.0268181 5.778,23.022 L5.796,23.022 Z M5.796,21.135 C5.47445252,21.135 5.18456667,21.3286955 5.06151577,21.6257667 C4.93846488,21.9228378 5.0064817,22.2647815 5.23385011,22.4921499 C5.46121852,22.7195183 5.80316219,22.7875351 6.10023333,22.6644842 C6.39730447,22.5414333 6.59100006,22.2515475 6.59100006,21.93 C6.59105486,21.7159968 6.50482981,21.511009 6.35182237,21.3613892 C6.19881493,21.2117694 5.99194833,21.1301546 5.778,21.135 L5.796,21.135 Z M21.642,22.8750154 C20.6583673,22.8777018 19.8150543,22.1731583 19.6427487,21.204731 C19.4704431,20.2363038 20.0189854,19.284117 20.9431841,18.9473715 C21.8673827,18.610626 22.8999067,18.9867278 23.391,19.839 C23.6631754,20.3026012 23.7367303,20.8564269 23.595,21.375 C23.3577377,22.2588668 22.557157,22.8737521 21.642,22.8750154 L21.642,22.8750154 Z M21.642,19.125 C20.8619072,19.1273681 20.180492,19.6529809 19.9801141,20.4069034 C19.7797362,21.1608259 20.1102726,21.9553956 20.7862508,22.3447591 C21.462229,22.7341225 22.315388,22.6213613 22.8669983,22.0697487 C23.4186086,21.5181361 23.5313663,20.6649766 23.142,19.989 C22.8303484,19.4438506 22.2458196,19.1124642 21.618,19.125 L21.642,19.125 Z M40.2,21.9 C39.0306529,21.8983437 38.0838971,20.9493506 38.084999,19.7800028 C38.0861048,18.610655 39.0346504,17.663451 40.2039986,17.6640019 C41.3733468,17.6645537 42.321,18.6126517 42.321,19.782 C42.3193448,20.9522242 41.3702254,21.9 40.2,21.9 L40.2,21.9 Z M40.2,17.967 C39.1959483,17.9686582 38.3833476,18.7839467 38.3849999,19.7879983 C38.3866623,20.79205 39.20195,21.6046514 40.2060016,21.6030001 C41.2100533,21.6013387 42.0226555,20.7860517 42.021005,19.782 C42.021005,18.7762895 41.2057105,17.961 40.2,17.961 L40.2,17.967 Z M49.116,21.5280034 C48.0673617,21.5292137 47.1213041,20.8984633 46.7191664,19.9299959 C46.3170286,18.9615286 46.538048,17.8461715 47.2791183,17.1042425 C48.0201885,16.3623136 49.1352889,16.1400026 50.1042213,16.5410186 C51.0731537,16.9420345 51.705,17.887361 51.705,18.936 C51.7016954,20.3640082 50.544011,21.520351 49.116,21.522 L49.116,21.5280034 Z M49.116,16.644 C48.1887005,16.6427863 47.3520338,17.2004439 46.9963304,18.0568088 C46.6406269,18.9131738 46.8359795,19.8994955 47.4912503,20.5556251 C48.146521,21.2117547 49.132586,21.4083989 49.9894161,21.0538174 C50.8462462,20.6992358 51.4050157,19.8633003 51.4050157,18.936 C51.4065932,18.3276044 51.1662306,17.7435377 50.7368734,17.3124923 C50.3075162,16.8814469 49.7243972,16.6387942 49.116,16.638 L49.116,16.644 Z M57.426,21.51 C57.082397,21.5135588 56.7464373,21.4085714 56.466,21.21 C55.7285348,20.6781903 55.5615177,19.6493885 56.0928738,18.9115965 C56.62423,18.1738044 57.6529289,18.0061547 58.3910475,18.5370571 C59.1291662,19.0679595 59.2974484,20.0965551 58.767,20.835 C58.4538291,21.2632211 57.9565029,21.5180035 57.426,21.522 L57.426,21.51 Z M57.426,18.509996 C57.3516417,18.5101493 57.2774111,18.516168 57.204,18.528 C56.8518181,18.5842331 56.5371357,18.7799634 56.331,19.071 C56.0143419,19.5153417 55.9955715,20.106404 56.283398,20.5699424 C56.5712245,21.0334808 57.1093138,21.2787703 57.648,21.192 C58.3419127,21.077543 58.8317083,20.4495258 58.7736927,19.7486339 C58.715677,19.0477421 58.1292878,18.508805 57.426,18.509996 L57.426,18.509996 Z M15.354,21.210001 C14.098837,21.2107482 13.0243725,20.3100746 12.8059244,19.0740668 C12.5874763,17.838059 13.2881291,16.6236569 14.4675113,16.1941312 C15.6468936,15.7646056 16.9644181,16.2439969 17.592,17.331 C18.0538069,18.1308727 18.0539539,19.1163223 17.5923857,19.9163327 C17.1308174,20.7163432 16.2776134,21.2094495 15.354,21.210001 L15.354,21.210001 Z M15.354,16.338 C14.5372434,16.337905 13.7824859,16.7735766 13.3740665,17.4808848 C12.965647,18.1881931 12.9656217,19.059668 13.374,19.767 C14.0073787,20.8599223 15.4063766,21.2331674 16.5,20.601 C17.0262951,20.2989731 17.4107002,19.7998517 17.5683109,19.2138776 C17.7259216,18.6279035 17.6437696,18.0032911 17.34,17.478 L17.34,17.478 C16.9285497,16.7678153 16.168758,16.3318505 15.348,16.3349663 L15.354,16.338 Z M1.74,18.9000066 C0.984867201,18.898344 0.373898067,18.2851382 0.37499848,17.5300044 C0.376104854,16.7748706 0.988863394,16.1634529 1.74399781,16.1640029 C2.49913222,16.1645544 3.111,16.7768654 3.111,17.532 C3.111,17.8953365 2.96646098,18.2437481 2.709262,18.5003843 C2.45206302,18.7570205 2.10333567,18.9007968 1.74,18.9000066 Z M1.74,16.467 C1.15016332,16.4686592 0.673350799,16.9481605 0.674999823,17.5379972 C0.676666039,18.1278339 1.15616609,18.6046476 1.74600279,18.6030002 C2.33583948,18.6013355 2.81265452,18.1218367 2.81100856,17.532 C2.8117997,17.2477087 2.69921934,16.9748308 2.49819427,16.7738057 C2.29716919,16.5727807 2.02429126,16.4602003 1.74,16.4609916 L1.74,16.467 Z M35.889,18.7080187 C35.1070375,18.7104285 34.4007209,18.2412546 34.0997926,17.5195113 C33.7988643,16.797768 33.9626737,15.9657982 34.5147467,15.4120053 C35.0668198,14.8582124 35.8982761,14.691816 36.6209519,14.9904979 C37.3436277,15.2891798 37.815,15.9940337 37.815,16.776 C37.8117059,17.838333 36.951333,18.6987059 35.889,18.702 L35.889,18.7080187 Z M35.889,15.144 C35.228377,15.1415712 34.6314516,15.5376517 34.3769575,16.147292 C34.1224633,16.7569323 34.2606054,17.4598664 34.7268785,17.9278601 C35.1931515,18.3958537 35.8955721,18.5365839 36.5061456,18.2843369 C37.1167192,18.0320899 37.515022,17.4366274 37.515022,16.776 C37.5165942,16.3431658 37.3461789,15.9274264 37.0412441,15.6202412 C36.7363094,15.3130559 36.3218342,15.1395884 35.889,15.138 L35.889,15.144 Z M7.749,18.702 C6.99347446,18.702 6.381,18.0895255 6.381,17.334 C6.381,16.5784745 6.99347446,15.966 7.749,15.966 C8.50452554,15.966 9.117,16.5784745 9.117,17.334 C9.11535007,18.0888411 8.50384106,18.7003501 7.749,18.702 L7.749,18.702 Z M7.749,16.266 C7.15915989,16.266 6.681,16.7441599 6.681,17.334 C6.681,17.9238401 7.15915989,18.402 7.749,18.402 C8.33884011,18.402 8.817,17.9238401 8.817,17.334 C8.815352,16.7448439 8.33815614,16.267648 7.749,16.266 L7.749,16.266 Z M44.238,17.202 C42.8101833,17.2003436 41.6538968,16.0418195 41.6549992,14.6140023 C41.6561047,13.1861851 42.8141813,12.0294504 44.2419988,12.0300015 C45.6698164,12.0305534 46.827,13.1881824 46.827,14.616 C46.8236954,16.0440082 45.666011,17.200351 44.238,17.202 L44.238,17.202 Z M44.238,12.332996 C42.9754787,12.3346579 41.9533467,13.3594773 41.9549999,14.6219987 C41.9566611,15.88452 42.98148,16.9066526 44.2440013,16.9050001 C45.5065226,16.9033396 46.5286558,15.8785213 46.527004,14.616 C46.5262049,14.0097149 46.2845962,13.4285777 45.8553254,13.000432 C45.4260545,12.5722863 44.8442851,12.3322038 44.238,12.332996 L44.238,12.332996 Z M63.246,16.926 C62.3693848,16.9213612 61.6524171,16.2261939 61.6207209,15.3501397 C61.5890246,14.4740854 62.2538801,13.7289228 63.127868,13.6609459 C64.0018559,13.5929691 64.7739331,14.2263703 64.8780737,15.09679 C64.9822143,15.9672097 64.3813557,16.7648746 63.516,16.905 C63.4265625,16.9179552 63.336365,16.9249706 63.246,16.926 L63.246,16.926 Z M63.246,13.9259923 C62.6593309,13.9248047 62.139359,14.3034595 61.9604317,14.8621787 C61.7815045,15.420898 61.9847775,16.0311686 62.463,16.371 L62.463,16.371 C62.7525076,16.5819143 63.1147606,16.6673411 63.468,16.608 C64.006994,16.520077 64.4395606,16.1154142 64.5631767,15.5834706 C64.6867927,15.051527 64.4769916,14.4975872 64.032,14.181 C63.8037527,14.0146385 63.5284402,13.9253196 63.246,13.9259923 L63.246,13.9259923 Z M31.392,16.266 C30.325378,16.2643438 29.4618973,15.3986259 29.4629989,14.3320031 C29.4641048,13.2653803 30.3293753,12.4014514 31.3959984,12.402002 C32.4626216,12.4025538 33.327,13.2673767 33.327,14.334 C33.325345,15.4014992 32.4595005,16.266 31.392,16.266 L31.392,16.266 Z M31.392,12.702 C30.4910637,12.7036561 29.7618976,13.4350591 29.7629988,14.3359963 C29.7641048,15.2369335 30.4950605,15.966548 31.3959982,15.9659975 C32.2969358,15.9654459 33.027,15.2349379 33.027,14.334 C33.0253453,13.4321862 32.2938153,12.702 31.392,12.702 L31.392,12.702 Z M56.592,16.119 C56.3064123,16.1190585 56.0281297,16.028748 55.797,15.861 C55.1879995,15.4169866 55.0541052,14.5634215 55.4978999,13.9542617 C55.9416946,13.3451018 56.7952115,13.210901 57.4045307,13.6544769 C58.0138499,14.0980529 58.1483571,14.9515216 57.705,15.561 C57.4913291,15.8579011 57.1667691,16.0558828 56.805,16.11 C56.731348,16.1187854 56.6571215,16.1217946 56.583,16.119 L56.592,16.119 Z M56.592,13.683 C56.5330838,13.6785536 56.4739162,13.6785536 56.415,13.683 C56.1361367,13.7281392 55.8867489,13.8825222 55.722,14.112 L55.722,14.112 C55.3808888,14.5911236 55.49135,15.255865 55.969084,15.5989197 C56.446818,15.9419745 57.1120026,15.8342146 57.4569952,15.3578781 C57.8019878,14.8815417 57.696931,14.2159248 57.222,13.869 C57.0353552,13.740562 56.8124385,13.6753694 56.586,13.683 L56.592,13.683 Z M11.4,15.3300054 C10.4887324,15.3283416 9.7513481,14.5882694 9.75299988,13.6770018 C9.7546628,12.7657342 10.4947342,12.0283491 11.4060018,12.0299999 C12.3172694,12.0316618 13.0546553,12.7717324 13.0530056,13.683 C13.0522051,14.1206074 12.8776035,14.5399757 12.5676057,14.8488483 C12.2576079,15.1577209 11.8376074,15.3307964 11.4,15.3300054 L11.4,15.3300054 Z M11.4,12.33 C10.6548084,12.331656 10.0518981,12.9368029 10.0529985,13.6819956 C10.0541049,14.4271882 10.6588045,15.0305471 11.4039978,15.0299971 C12.1491911,15.0294455 12.753,14.4251935 12.753,13.68 C12.7496967,12.9351029 12.1449044,12.3329927 11.4,12.333 L11.4,12.33 Z M26.4,14.022 C25.4891225,14.0203439 24.7518976,13.2808819 24.7529988,12.3700036 C24.7541048,11.4591253 25.4931194,10.721452 26.4039982,10.7220024 C27.314877,10.7225541 28.053,11.461121 28.053,12.372 C28.053,13.2849267 27.3129267,14.025 26.4,14.025 L26.4,14.022 Z M26.4,11.022 C25.6548084,11.023656 25.0518981,11.6288029 25.0529985,12.3739956 C25.0541049,13.1191882 25.6588045,13.7225471 26.4039978,13.7219971 C27.1491911,13.7214455 27.753,13.1171935 27.753,12.372 C27.7496967,11.6271029 27.1449044,11.0249927 26.4,11.025 L26.4,11.022 Z M16.284,13.461 C15.3727302,13.461 14.634,12.7222698 14.634,11.811 C14.634,10.8997302 15.3727302,10.161 16.284,10.161 C17.1952698,10.161 17.934,10.8997302 17.934,11.811 C17.9323489,12.721585 17.194585,13.4593489 16.284,13.461 Z M16.284,10.461 C15.5384156,10.461 14.934,11.0654156 14.934,11.811 C14.934,12.5565844 15.5384156,13.161 16.284,13.161 C17.0295844,13.161 17.634,12.5565844 17.634,11.811 C17.6323502,11.0661 17.0289,10.4626498 16.284,10.461 L16.284,10.461 Z M38.982,13.266 C37.6565166,13.266 36.582,12.1914834 36.582,10.866 C36.582,9.5405166 37.6565166,8.466 38.982,8.466 C40.3074834,8.466 41.382,9.5405166 41.382,10.866 C41.382,12.1914834 40.3074834,13.266 38.982,13.266 Z M38.982,8.766 C37.822202,8.766 36.882,9.70620203 36.882,10.866 C36.882,12.025798 37.822202,12.966 38.982,12.966 C40.141798,12.966 41.082,12.025798 41.082,10.866 C41.0803448,9.70737377 40.1406274,8.76899882 38.982,8.769 L38.982,8.766 Z M21.444,13.266 C20.4850737,13.2643438 19.7088975,12.4859306 19.7099988,11.5270035 C19.7111048,10.5680763 20.4890707,9.79145177 21.4479983,9.79200229 C22.4069259,9.79255398 23.184,10.5700722 23.184,11.529 C23.1806998,12.4881188 22.4031231,13.2643549 21.444,13.266 L21.444,13.266 Z M21.444,10.092 C20.6507594,10.093656 20.0088979,10.7377543 20.0099986,11.5309958 C20.0111048,12.3242373 20.6547558,12.9665474 21.4479979,12.9659973 C22.24124,12.9654457 22.884,12.3222423 22.884,11.529 C22.8807026,10.7355664 22.2374388,10.0936427 21.444,10.092 L21.444,10.092 Z M4.275,13.2660219 C3.60709666,13.2684288 3.00360778,12.8679627 2.74632757,12.2515962 C2.48904736,11.6352297 2.6287295,10.9245534 3.10015057,10.4514118 C3.57157163,9.97827026 4.28173434,9.83600006 4.89903402,10.0910332 C5.5163337,10.3460663 5.91900546,10.9480922 5.91900546,11.616 C5.91979637,12.0528118 5.74703695,12.4720492 5.43872699,12.7814843 C5.13041703,13.0909195 4.71181178,13.2652051 4.275,13.2660219 L4.275,13.2660219 Z M4.275,10.2659733 C3.72816376,10.2635709 3.23387627,10.5912683 3.02320614,11.0959007 C2.81253601,11.6005331 2.92710142,12.1824098 3.31334554,12.569516 C3.69958965,12.9566223 4.28120942,13.0724848 4.7863103,12.8629404 C5.29141118,12.6533959 5.62020981,12.1598403 5.61900664,11.613 C5.61735019,10.8714137 5.01658626,10.2706498 4.275,10.269 L4.275,10.2659733 Z M54,11.5590032 C53.7728265,11.5590731 53.5513818,11.487707 53.367,11.355 L53.367,11.355 C53.0087088,11.0994369 52.8400784,10.6529039 52.9399983,10.2243002 C53.0399182,9.7956965 53.3886308,9.46977115 53.823,9.399 C54.1078667,9.35045846 54.4002298,9.41975934 54.633,9.591 C55.1222228,9.93473724 55.2415723,10.6092632 54.9,11.1 C54.733424,11.3348244 54.4793192,11.4926938 54.195,11.538 C54.1309591,11.5520826 54.0655709,11.5591244 54,11.5590032 Z M53.544,11.1 C53.8974735,11.3505406 54.3870312,11.2677988 54.6385339,10.9150092 C54.8900365,10.5622196 54.8086287,10.0724382 54.4565255,9.81997546 C54.1044224,9.56751269 53.614421,9.64758591 53.361,9.999 C53.1091187,10.3539406 53.1908427,10.8456244 53.544,11.1 L53.544,11.1 Z M59.925,11.13 C59.6383875,11.1306931 59.3589589,11.0403515 59.127,10.872 L59.127,10.872 C58.6784787,10.5495301 58.4679183,9.98894745 58.5932351,9.45093829 C58.7185519,8.91292914 59.1551502,8.50308712 59.7,8.412 C60.0584676,8.3507053 60.4264735,8.43729491 60.72,8.652 C61.1685213,8.97446988 61.3790817,9.53505255 61.2537649,10.0730617 C61.1284481,10.6110709 60.6918498,11.0209129 60.147,11.112 C60.0739106,11.1278595 59.9996773,11.137891 59.925,11.142 L59.925,11.13 Z M59.925,8.694 C59.8666393,8.6930266 59.8083331,8.698053 59.751,8.709 C59.4716589,8.75285489 59.2218124,8.90752175 59.058,9.138 C58.8898956,9.36891816 58.8212925,9.65755032 58.8675177,9.9394111 C58.9137428,10.2212719 59.0709441,10.4728721 59.304,10.638 L59.304,10.638 C59.5345482,10.8064095 59.8229284,10.8754976 60.1047612,10.8298407 C60.386594,10.7841838 60.6384126,10.6275835 60.804,10.395 C60.9713031,10.1638088 61.0394198,9.87540785 60.993235,9.59379346 C60.9470502,9.31217907 60.7903838,9.06064259 60.558,8.895 C60.3732778,8.76398935 60.1514225,8.69564529 59.925,8.7 L59.925,8.694 Z M33.168,10.08 C32.2702243,10.0836438 31.4588772,9.54548052 31.1130659,8.71697043 C30.7672545,7.88846035 30.9552541,6.93318034 31.5892206,6.29749104 C32.2231872,5.66180175 33.1779535,5.47121051 34.007399,5.81477229 C34.8368444,6.15833406 35.3772075,6.96821773 35.3760365,7.866 C35.3783918,8.45398642 35.1471064,9.01884007 34.7330251,9.4362971 C34.3189437,9.85375413 33.7559865,10.0896179 33.168,10.092 L33.168,10.08 Z M33.168,5.94895769 C32.3918373,5.945356 31.6900721,6.41010059 31.3905191,7.12613821 C31.0909661,7.84217584 31.2527475,8.66818352 31.8002906,9.21830936 C32.3478337,9.7684352 33.1730709,9.93410191 33.8905103,9.6379218 C34.6079496,9.3417417 35.076,8.64217129 35.076,7.866 C35.0694352,6.81545968 34.2185493,5.9659117 33.168,5.961 L33.168,5.94895769 Z M8.775,8.769 C7.86373016,8.769 7.125,8.03026984 7.125,7.119 C7.125,6.20773016 7.86373016,5.469 8.775,5.469 C9.68626984,5.469 10.425,6.20773016 10.425,7.119 C10.4233489,8.02958505 9.68558505,8.76734889 8.775,8.769 L8.775,8.769 Z M8.775,5.769 C8.02941559,5.769 7.425,6.37341559 7.425,7.119 C7.425,7.86458441 8.02941559,8.469 8.775,8.469 C9.52058441,8.469 10.125,7.86458441 10.125,7.119 C10.1233502,6.37410004 9.51989996,5.77064984 8.775,5.769 L8.775,5.769 Z M49.935,7.965 C49.7272338,7.96548609 49.5246126,7.90039535 49.356,7.779 C49.0676867,7.57214322 48.9116309,7.22718635 48.9466175,6.87407129 C48.9816041,6.52095623 49.2023176,6.21332957 49.5256175,6.06707129 C49.8489174,5.92081301 50.2256867,5.95814322 50.514,6.165 L50.514,6.165 C50.9582896,6.48564359 51.0601637,7.1049312 50.742,7.551 C50.5574689,7.81333512 50.2557205,7.96813543 49.935,7.965 L49.935,7.965 Z M49.935,6.279 C49.8970583,6.27602425 49.8589417,6.27602425 49.821,6.279 C49.6397478,6.3081402 49.477698,6.40861107 49.371,6.558 C49.1489101,6.87049155 49.2213421,7.30374182 49.533,7.527 C49.8437611,7.74941468 50.275919,7.67828309 50.499,7.368 C50.7199998,7.05588944 50.6491521,6.62411968 50.34,6.399 L50.34,6.399 C50.2204377,6.31854667 50.0790917,6.27666637 49.935,6.279 L49.935,6.279 Z M27.54,7.65603992 C26.7174551,7.65964411 25.9739307,7.16679904 25.6569084,6.40779296 C25.3398861,5.64878689 25.5119718,4.77350905 26.0927423,4.19101524 C26.6735127,3.60852143 27.5482769,3.43384309 28.3082189,3.74861509 C29.068161,4.06338708 29.5632069,4.80544794 29.5620044,5.628 C29.5620044,6.7456945 28.6576896,7.65269321 27.54,7.65603992 Z M27.54,3.89995318 C26.8390684,3.89635559 26.205126,4.31578171 25.9343621,4.96231502 C25.6635981,5.60884834 25.8094654,6.35485364 26.3038121,6.85178402 C26.7981587,7.3487144 27.5433935,7.49846846 28.1913295,7.23107846 C28.8392655,6.96368845 29.262,6.33194111 29.262,5.631 C29.262,4.67849882 28.4924883,3.90495235 27.54,3.89995318 Z M55.074,6.78 C54.6310647,6.77898906 54.2258682,6.53042242 54.0242495,6.1360335 C53.8226308,5.74164458 53.8584319,5.26763209 54.117,4.908 C54.4294445,4.47424034 54.9941237,4.3041768 55.494145,4.49324746 C55.9941663,4.68231811 56.3050483,5.18345346 56.252327,5.71542099 C56.1996056,6.24738851 55.796406,6.67775387 55.269,6.765 C55.204352,6.77346573 55.1391982,6.77747519 55.074,6.777 L55.074,6.78 Z M55.074,4.716 C55.026046,4.71302808 54.977954,4.71302808 54.93,4.716 C54.5803526,4.77655638 54.3010447,5.04075524 54.2211571,5.38649842 C54.1412695,5.7322416 54.2763611,6.09219186 54.564,6.3 C54.7548818,6.43424905 54.9904463,6.48910654 55.221,6.453 C55.5725235,6.39507787 55.8543201,6.13070149 55.9345254,5.78358352 C56.0147307,5.43646555 55.8774805,5.07526398 55.587,4.869 C55.4380752,4.76376154 55.259314,4.70908165 55.077,4.713 L55.074,4.716 Z M14.595,6.705 C13.5813974,6.70334378 12.7608974,5.88060665 12.7619989,4.86700327 C12.7631048,3.85339989 13.5853945,3.03245155 14.5989984,3.03300217 C15.6126022,3.03355389 16.434,3.85539602 16.434,4.869 C16.4323451,5.88347988 15.6094812,6.705 14.595,6.705 Z M14.595,3.333 C13.7470831,3.33465609 13.0608978,4.02307832 13.0619987,4.87099609 C13.0631048,5.71891387 13.7510797,6.4055477 14.598998,6.40499741 C15.4469164,6.40444579 16.134,5.7169185 16.134,4.869 C16.1323454,4.02020558 15.443796,3.333 14.595,3.333 L14.595,3.333 Z M21.072,6.333 C20.005378,6.33134375 19.1418973,5.46562586 19.1429989,4.39900311 C19.1441048,3.33238035 20.0093753,2.46845136 21.0759984,2.46900206 C22.1426216,2.46955381 23.007,3.33437667 23.007,4.401 C23.005345,5.46849923 22.1395005,6.333 21.072,6.333 Z M21.072,2.769 C20.1710637,2.77065614 19.4418976,3.50205915 19.4429988,4.40299632 C19.4441048,5.3039335 20.1750605,6.03354797 21.0759982,6.03299756 C21.9769358,6.03244591 22.707,5.30193785 22.707,4.401 C22.7053453,3.49918623 21.9738153,2.769 21.072,2.769 Z M45.321,6.033 C45.1139275,6.03198295 44.9124198,5.96586324 44.745,5.844 L44.745,5.844 C44.5302559,5.690985 44.3854269,5.45862408 44.3426258,5.19843819 C44.2998246,4.93825229 44.3625882,4.67174196 44.517,4.458 C44.6704283,4.24459205 44.9024226,4.10095548 45.1618486,4.05874952 C45.4212746,4.01654355 45.6868361,4.07923287 45.9,4.233 C46.1147441,4.386015 46.2595731,4.61837592 46.3023742,4.87856181 C46.3451754,5.13874771 46.2824118,5.40525804 46.128,5.619 C45.9768373,5.83342502 45.7451897,5.97739292 45.486,6.018 C45.4314793,6.02732584 45.3763086,6.03234136 45.321,6.033 Z M44.919,5.601 C45.0682936,5.70790789 45.2535329,5.75206379 45.435,5.724 C45.6162522,5.6948598 45.778302,5.59438893 45.885,5.445 C46.1077186,5.13328792 46.0366534,4.70019284 45.726,4.476 C45.5773858,4.36808221 45.3918791,4.32386751 45.2105643,4.35314816 C45.0292495,4.38242882 44.8670902,4.48278834 44.76,4.632 C44.5372814,4.94371208 44.6083466,5.37680716 44.919,5.601 L44.919,5.601 Z M40.359,4.51800452 C40.1326901,4.51846634 39.912082,4.44703133 39.729,4.314 L39.729,4.314 C39.367613,4.06089273 39.1952752,3.61430121 39.292954,3.18404232 C39.3906329,2.75378342 39.7389118,2.42538413 40.174163,2.35313243 C40.6094141,2.28088074 41.0451182,2.47913886 41.2765734,2.8547615 C41.5080286,3.23038414 41.4892262,3.70870493 41.229,4.065 C41.0660736,4.29606689 40.8177344,4.45262852 40.539,4.5 C40.4795384,4.51052034 40.4193674,4.51653743 40.359,4.51800452 L40.359,4.51800452 Z M39.9,4.071 C40.1280785,4.24006649 40.429604,4.27299604 40.6887984,4.15714454 C40.9479928,4.04129303 41.1245667,3.79466854 41.1507202,3.51196854 C41.1768737,3.22926854 41.0485416,2.95443616 40.815,2.793 C40.6468456,2.66943548 40.4356502,2.619615 40.23,2.655 C39.9154502,2.70610281 39.6628856,2.94207336 39.5905566,3.25243056 C39.5182276,3.56278776 39.6404502,3.88610279 39.9,4.071 L39.9,4.071 Z M49.635,3.81 C49.40789,3.80966946 49.1865659,3.73834226 49.002,3.606 L49.002,3.606 C48.5236641,3.2549982 48.4131005,2.58628774 48.753,2.1 C48.920275,1.86449478 49.1755893,1.70654611 49.461,1.662 C50.0533254,1.56424561 50.6127456,1.96517461 50.7105,2.5575 C50.8082544,3.14982539 50.4073254,3.70924559 49.815,3.807 C49.7561543,3.81235645 49.6969934,3.81335917 49.638,3.81 L49.635,3.81 Z M49.176,3.36 C49.5284333,3.61283871 50.0188712,3.53377904 50.274,3.183 C50.5277863,2.83039285 50.450153,2.3391617 50.1,2.082 C49.9269297,1.95672543 49.7100484,1.90792714 49.5,1.947 C49.2966431,1.97454749 49.1128807,2.08264301 48.99,2.247 C48.8680638,2.41640515 48.8185161,2.62735408 48.8522828,2.83333069 C48.8860495,3.0393073 49.0003571,3.2233947 49.17,3.345 L49.176,3.36 Z M43.2,2.17500012 C42.9728265,2.17507307 42.7513818,2.10370703 42.567,1.971 L42.567,1.971 C42.0751589,1.62486366 41.9557873,0.946189276 42.3,0.453 C42.6497098,-0.0339321331 43.3278358,-0.145386498 43.815,0.204 C44.3033049,0.553887127 44.4160602,1.23310364 44.067,1.722 C43.899725,1.95750522 43.6444107,2.11545389 43.359,2.16 C43.3064146,2.16870113 43.2532849,2.17371336 43.2,2.17500012 Z M43.2,0.3 C43.157108,0.295689196 43.113892,0.295689196 43.071,0.3 C42.8678668,0.32819211 42.6843355,0.436151711 42.561,0.6 C42.3091187,0.954940585 42.3908427,1.44662442 42.744,1.701 L42.744,1.701 C42.9131773,1.82225036 43.1237984,1.87085524 43.329,1.836 C43.5323569,1.80845251 43.7161193,1.70035699 43.839,1.536 C43.9617321,1.36686499 44.0117623,1.15568689 43.9779557,0.949466285 C43.944149,0.743245685 43.8293108,0.559095177 43.659,0.438 C43.5245468,0.344403825 43.3637756,0.296067408 43.2,0.3 Z"/>
  </g>
</svg>
